<?xml version="1.0" standalone="no"?><!DOCTYPE svg PUBLIC "-//W3C//DTD SVG 1.1//EN" "http://www.w3.org/Graphics/SVG/1.1/DTD/svg11.dtd"><svg t="1678845445520" class="icon" viewBox="0 0 1024 1024" version="1.1" xmlns="http://www.w3.org/2000/svg" p-id="15634" xmlns:xlink="http://www.w3.org/1999/xlink" width="200" height="200"><path d="M932.571429 146.285714H173.714286c-10.057143 0-18.285714 8.228571-18.285715 18.285715v54.857142h-64c-10.057143 0-18.285714 8.228571-18.285714 18.285715v621.714285c0 10.057143 8.228571 18.285714 18.285714 18.285715h758.857143c10.057143 0 18.285714-8.228571 18.285715-18.285715v-54.857142h64c10.057143 0 18.285714-8.228571 18.285714-18.285715V164.571429c0-10.057143-8.228571-18.285714-18.285714-18.285715zM109.714286 256h722.285714v91.428571H109.714286V256z m722.285714 585.142857H109.714286V384h722.285714v457.142857z m82.285714-73.142857h-43.428571L868.571429 383.817143V310.857143h45.714285v457.142857z m0-493.714286h-45.714285v-36.571428c0-10.057143-8.228571-18.285714-18.285715-18.285715H192v-36.571428h722.285714v91.428571z" fill="#79548e" p-id="15635" data-spm-anchor-id="a313x.7781069.0.i38" class=""></path><path d="M192 347.428571h640V256H109.714286v91.428571z" fill="#d1bedc" p-id="15636" data-spm-anchor-id="a313x.7781069.0.i50" class="selected"></path><path d="M621.714286 301.714286m-18.285715 0a18.285714 18.285714 0 1 0 36.571429 0 18.285714 18.285714 0 1 0-36.571429 0Z" fill="#79548e" p-id="15637" data-spm-anchor-id="a313x.7781069.0.i40" class=""></path><path d="M694.857143 301.714286m-18.285714 0a18.285714 18.285714 0 1 0 36.571428 0 18.285714 18.285714 0 1 0-36.571428 0Z" fill="#79548e" p-id="15638" data-spm-anchor-id="a313x.7781069.0.i41" class=""></path><path d="M768 301.714286m-18.285714 0a18.285714 18.285714 0 1 0 36.571428 0 18.285714 18.285714 0 1 0-36.571428 0Z" fill="#79548e" p-id="15639" data-spm-anchor-id="a313x.7781069.0.i42" class=""></path><path d="M454.308571 760.045714c-4.662857 0-9.325714-1.828571-12.891428-5.394285l-70.308572-70.308572c-7.131429-7.131429-7.131429-18.742857 0-25.874286l70.308572-70.308571c7.131429-7.131429 18.742857-7.131429 25.874286 0 7.131429 7.131429 7.131429 18.742857 0 25.874286l-57.417143 57.417143 57.417143 57.417142c7.131429 7.131429 7.131429 18.742857 0 25.874286-3.657143 3.474286-8.32 5.302857-12.982858 5.302857zM688.548571 760.045714a18.322286 18.322286 0 0 1-12.891428-31.268571l57.417143-57.417143-57.417143-57.417143c-7.131429-7.131429-7.131429-18.742857 0-25.874286 7.131429-7.131429 18.742857-7.131429 25.874286 0l70.308571 70.308572c7.131429 7.131429 7.131429 18.742857 0 25.874286l-70.308571 70.308571c-3.657143 3.657143-8.32 5.485714-12.982858 5.485714zM516.48 795.337143a18.276571 18.276571 0 0 1-16.548571-26.057143l99.474285-211.291429a18.276571 18.276571 0 1 1 33.097143 15.542858L533.028571 784.822857a18.194286 18.194286 0 0 1-16.548571 10.514286z" fill="#79548e" p-id="15640" data-spm-anchor-id="a313x.7781069.0.i47" class=""></path><path d="M512 484.571429H182.857143c-10.057143 0-18.285714-8.228571-18.285714-18.285715s8.228571-18.285714 18.285714-18.285714h329.142857c10.057143 0 18.285714 8.228571 18.285714 18.285714s-8.228571 18.285714-18.285714 18.285715z" fill="#79548e" p-id="15641" data-spm-anchor-id="a313x.7781069.0.i43" class=""></path><path d="M768 484.571429h-45.714286c-10.057143 0-18.285714-8.228571-18.285714-18.285715s8.228571-18.285714 18.285714-18.285714h45.714286c10.057143 0 18.285714 8.228571 18.285714 18.285714s-8.228571 18.285714-18.285714 18.285715z" fill="#79548e" p-id="15642" data-spm-anchor-id="a313x.7781069.0.i48" class=""></path><path d="M658.285714 484.571429h-82.285714c-10.057143 0-18.285714-8.228571-18.285714-18.285715s8.228571-18.285714 18.285714-18.285714h82.285714c10.057143 0 18.285714 8.228571 18.285715 18.285714s-8.228571 18.285714-18.285715 18.285715z" fill="#79548e" p-id="15643" data-spm-anchor-id="a313x.7781069.0.i49" class=""></path><path d="M256 667.428571h-73.142857c-10.057143 0-18.285714-8.228571-18.285714-18.285714s8.228571-18.285714 18.285714-18.285714h73.142857c10.057143 0 18.285714 8.228571 18.285714 18.285714s-8.228571 18.285714-18.285714 18.285714z" fill="#79548e" p-id="15644" data-spm-anchor-id="a313x.7781069.0.i45" class=""></path><path d="M292.571429 740.571429H182.857143c-10.057143 0-18.285714-8.228571-18.285714-18.285715s8.228571-18.285714 18.285714-18.285714h109.714286c10.057143 0 18.285714 8.228571 18.285714 18.285714s-8.228571 18.285714-18.285714 18.285715z" fill="#79548e" p-id="15645" data-spm-anchor-id="a313x.7781069.0.i46" class=""></path><path d="M356.571429 557.714286H182.857143c-10.057143 0-18.285714-8.228571-18.285714-18.285715s8.228571-18.285714 18.285714-18.285714h173.714286c10.057143 0 18.285714 8.228571 18.285714 18.285714s-8.228571 18.285714-18.285714 18.285715z" fill="#79548e" p-id="15646" data-spm-anchor-id="a313x.7781069.0.i44" class=""></path></svg>