<svg t="1678847377737" class="icon" viewBox="0 0 1024 1024" version="1.1" xmlns="http://www.w3.org/2000/svg" p-id="22330" data-spm-anchor-id="a313x.7781069.0.i84" width="200" height="200"><path d="M456.136862 397.185969h119.634707A18.558031 18.558031 0 0 0 593.825477 378.092308v-0.4096a18.904615 18.904615 0 0 0-18.384739-19.345723h-119.335384A18.904615 18.904615 0 0 0 437.956923 378.092308a18.621046 18.621046 0 0 0 18.179939 19.093661z m0 132.143262h119.634707a18.558031 18.558031 0 0 0 18.053908-19.030646v-0.4096a18.904615 18.904615 0 0 0-18.384739-19.345723h-119.335384a18.904615 18.904615 0 0 0-18.148431 19.771076 18.621046 18.621046 0 0 0 18.179939 19.014893zM718.848 713.980062v149.157415H147.534769V259.087754h53.153477v17.707323a15.375754 15.375754 0 0 0 18.542277 14.7456H647.325538a15.312738 15.312738 0 0 0 18.384739-14.761354v-17.691569h53.137723v116.846277h60.967385v-149.472493a31.287138 31.287138 0 0 0-30.215877-32.122092h-83.904985V176.443077a19.077908 19.077908 0 0 0-18.368985-19.534769h-97.673846a127.684923 127.684923 0 0 0-31.507692-59.26597 115.381169 115.381169 0 0 0-84.440615-37.651692h-0.551385A115.239385 115.239385 0 0 0 348.459323 97.673846a130.284308 130.284308 0 0 0-31.712492 59.234462h-97.532062a19.109415 19.109415 0 0 0-18.542277 19.534769v17.927877h-83.495384a31.381662 31.381662 0 0 0-30.467939 32.122092v662.906092a31.507692 31.507692 0 0 0 30.467939 32.3584H749.568a31.365908 31.365908 0 0 0 30.247385-32.3584V713.980062h-60.967385z m-344.4736-589.193847a80.108308 80.108308 0 0 1 58.7776-25.962338h0.488369a80.344615 80.344615 0 0 1 58.525539 25.962338 91.703138 91.703138 0 0 1 19.613538 32.1536h-156.782277a88.788677 88.788677 0 0 1 19.377231-32.1536z m-136.932431 71.160123h392.002954v61.566031H237.441969v-61.566031z m60.037908 242.609231l-31.9488 57.233723a9.058462 9.058462 0 0 0 0 8.774893 8.459815 8.459815 0 0 0 7.341292 4.379569h63.929108a8.822154 8.822154 0 0 0 7.183754-13.422277l-31.822769-56.997415a8.333785 8.333785 0 0 0-14.698339 0.063015z m-9.940677 52.854154l17.329231-30.956308 17.329231 30.956308h-34.658462z m118.705231 38.187323l-91.781908-164.375631a11.027692 11.027692 0 0 0-19.314215 0l-92.065477 164.94277a11.909908 11.909908 0 0 0 0 11.531815 11.122215 11.122215 0 0 0 9.657107 5.765908h184.178216a11.374277 11.374277 0 0 0 11.137969-11.579077 11.957169 11.957169 0 0 0-1.811692-6.270031z m-28.672-5.230277h-145.534031l72.751262-130.331569z m78.580184 137.058462h119.634708a18.558031 18.558031 0 0 0 18.053908-19.030646v-0.4096a18.904615 18.904615 0 0 0-18.384739-19.345723h-119.351138a18.904615 18.904615 0 0 0-18.148431 19.818338 18.621046 18.621046 0 0 0 18.179939 19.030646z m0 132.143261H646.537846a18.558031 18.558031 0 0 0 18.053908-19.030646v-0.4096a18.904615 18.904615 0 0 0-18.384739-19.345723H456.105354a18.904615 18.904615 0 0 0-18.148431 19.818339 18.621046 18.621046 0 0 0 18.179939 19.030646z m-158.672738-89.970215L265.515323 760.910769a9.042708 9.042708 0 0 0 0 8.774893 8.459815 8.459815 0 0 0 7.341292 4.379569h63.929108a8.822154 8.822154 0 0 0 7.183754-13.406523l-31.822769-56.997416a8.333785 8.333785 0 0 0-14.666831-0.063015z m-9.940677 52.869908l17.329231-30.956308 17.329231 30.956308h-34.658462z m118.705231 38.187323l-91.781908-164.422893a11.027692 11.027692 0 0 0-19.314215 0l-92.065477 164.94277a11.925662 11.925662 0 0 0 0 11.547569 11.137969 11.137969 0 0 0 9.657107 5.750154h184.178216a11.374277 11.374277 0 0 0 11.137969-11.579077 11.957169 11.957169 0 0 0-1.811692-6.254277z m-28.672-5.246031h-145.534031l72.751262-130.331569z" fill="#ba546c" p-id="22331" data-spm-anchor-id="a313x.7781069.0.i80" class="selected"></path><path d="M750.765292 374.736738a175.3088 175.3088 0 1 0 175.3088 175.3088 174.584123 174.584123 0 0 0-175.3088-175.3088z m37.005785 169.464124c-29.223385 40.96-56.493292 89.607877-56.493292 89.607876l-70.12037-74.043076 17.534031-17.534031 42.850462 38.959261a432.3328 432.3328 0 0 1 50.648615-62.337969 473.198277 473.198277 0 0 1 62.337969-50.648615l5.844677 15.580554a336.454892 336.454892 0 0 0-52.586338 60.416z" fill="#da98a8" p-id="22332" data-spm-anchor-id="a313x.7781069.0.i81" class="selected"></path></svg>