<svg t="1678847485750" class="icon" viewBox="0 0 1024 1024" version="1.1" xmlns="http://www.w3.org/2000/svg" p-id="23184" width="200" height="200"><path d="M1005.380507 607.390648c-0.374986 86.823662-5.264225 156.340282-28.412394 223.318535-38.753352 112.063099-139.364958 182.546028-257.485521 189.858254-95.477183 5.913239-190.651493 4.860394-284.527775-8.624676C225.885746 981.886197 88.640901 852.184338 38.623549 647.254535 17.23493 559.637634 6.02862 470.232338 21.893408 381.966423c21.749183-120.759887 101.823099-202.679887 203.141409-264.696789C361.630648 33.662197 511.09138-3.706592 670.575775 3.547944c78.948958 3.605634 154.321127 22.859718 220.953239 70.093521 65.867718 46.671324 96.19831 112.827493 97.380958 188.891943 1.87493 120.759887 12.893746 240.928451 16.470535 344.842817" fill="#74aa77" p-id="23185" data-spm-anchor-id="a313x.7781069.0.i94" class="selected"></path><path d="M876.414197 247.346479c25.354817 25.470197 31.80169 59.074704 36.80631 92.16 16.153239 106.726761 9.720789 213.886197-0.317296 320.555267-9.461183 100.539493-96.155042 176.214535-197.055098 176.329916-123.601127 0.144225-247.216676 0.201915-370.832226-0.05769-103.265352-0.230761-191.704338-89.737014-197.069521-193.867718-4.874817-94.770479-5.192113-189.281352 0.461521-283.936451 2.437408-40.613859 12.533183-78.285521 37.541859-111.067944 16.398423-18.619493 38.912-16.21093 59.968902-16.26862 190.146704-0.576901 380.322254-0.576901 570.468958 0 21.056901 0.043268 43.556056-2.336451 60.026591 16.15324" fill="#FBFDFE" p-id="23186" data-spm-anchor-id="a313x.7781069.0.i93" class="selected"></path><path d="M867.227042 245.053296L179.993239 245.183099c-10.672676-0.634592-21.316507-1.442254-32.003605-1.846085-11.451493-0.447099-15.720563-10.023662-17.667606-21.44631-2.596056-15.287887 4.586366-26.753803 14.912902-30.590197 11.307268-4.21138 24.013521-3.663324 36.099605-3.677746C412.080676 187.44969 642.812394 187.492958 873.52969 187.492958c7.643944 0 15.287887 0.11538 22.931831 0.216338 16.239775 0.216338 26.537465 9.417915 26.580733 29.98445 0.05769 22.859718-13.384113 26.378817-28.369127 26.537465-9.15831 0.100958-18.302197 0.533634-27.460507 0.807662" fill="#426544" p-id="23187" data-spm-anchor-id="a313x.7781069.0.i92" class=""></path><path d="M709.257014 548.056338c-57.978592 0.216338-108.169014-41.147493-116.649465-96.169465-8.566986-55.598873 26.494197-114.731268 77.88169-130.307605 25.051944-7.600676 46.786704-8.812169 41.046536 28.556619-0.461521 2.999887-0.086535 6.115155-0.05769 9.172733 0.432676 74.276056 0.432676 75.646197 76.987492 75.862535 33.806423 0.086535 40.181183 10.744789 27.720113 40.556169-17.811831 42.589746-59.882366 72.155944-106.928676 72.329014" fill="#426544" p-id="23188" data-spm-anchor-id="a313x.7781069.0.i95" class=""></path><path d="M789.489577 432.387606c-51.488451-0.043268-52.930704-0.11538-50.579831-68.896451 0.721127-21.244394-16.730141-58.598761 21.518423-60.574648 32.162254-1.673014 75.040451 54.344113 76.050028 96.169465 1.211493 51.358648-30.979606 26.652845-46.98862 33.301634" fill="#74aa77" p-id="23189" data-spm-anchor-id="a313x.7781069.0.i96" class=""></path><path d="M704.62738 648.913127c-28.628732 0-57.257465 0.302873-85.900619-0.144226-12.576451-0.201915-27.950873 2.307606-27.388395-22.70107 0.475944-20.912676 13.643718-20.148282 25.095211-20.177127 60.127549-0.187493 120.255099-0.201915 180.397071 0 11.393803 0.043268 24.63369-0.937465 25.239437 19.989634 0.692282 25.008676-14.624451 22.729915-27.258592 22.888563-30.056563 0.418254-60.113127 0.144225-90.184113 0.144226M702.738028 692.382648c33.316056 0.028845 66.632113-0.158648 99.933747 0.158648 8.754479 0.086535 18.778141 1.19707 19.383887 20.407887 0.605746 19.643493-9.216 22.35493-18.085859 22.383775-65.175437 0.288451-130.336451 0.288451-195.497465-0.072113-8.970817-0.043268-18.417577-3.562366-17.018592-23.696225 1.355718-19.499268 11.538028-18.951211 20.047324-19.037747 30.431549-0.432676 60.834254-0.17307 91.236958-0.144225" fill="#426544" p-id="23190" data-spm-anchor-id="a313x.7781069.0.i101" class="selected"></path><path d="M461.521127 449.348507c-4.514254 34.354479-33.878535 59.44969-24.143324 100.626028 3.894085 16.542648-14.754254 27.633577-29.912338 26.898028-20.638648-1.009577-26.970141-19.383887-31.556507-40.094648-5.12-23.148169 12.46107-28.917183 20.984788-27.604732 42.546479 6.576676 39.661972-44.363718 62.218817-62.074591l2.408564 2.249915z" fill="#426544" p-id="23191" data-spm-anchor-id="a313x.7781069.0.i99" class="selected"></path><path d="M289.316056 546.152563c1.788394-23.753915 23.566423-44.08969 2.552789-72.660732-10.12462-13.730254 3.547944-35.537127 23.66738-39.517746 19.917521-3.92293 37.94569-0.11538 40.339831 27.013408 1.355718 15.345577 16.456113 39.301408-15.951324 40.008113-27.446085 0.620169-31.051718 33.070873-48.690478 47.060732l-1.93262-1.903775z" fill="#426544" p-id="23192" data-spm-anchor-id="a313x.7781069.0.i98" class="selected"></path><path d="M287.296901 535.350085c0.576901 14.263887-10.06693 26.436507-2.206647 43.195492 8.509296 18.143549 1.052845 36.791887-24.561578 40.815775-19.903099 3.12969-36.301521-2.653746-42.358986-22.181859-6.749746-21.835718 5.826704-37.888 26.39324-41.782085 17.638761-3.331606 27.70569-13.730254 40.685971-21.763605l2.062423 1.716282" fill="#426544" p-id="23193" data-spm-anchor-id="a313x.7781069.0.i97" class="selected"></path><path d="M470.794817 445.151549c4.586366-13.456225-7.586254-23.898141-8.956394-36.287098-1.730704-15.720563 3.317183-28.297014 23.119323-32.263212 16.932056-3.389296 33.171831-2.451831 42.83493 12.648564 10.153465 15.922479 7.326648 30.633465-10.485183 40.426366-13.384113 7.355493-29.046986 11.725521-43.700282 17.422423l-2.812394-1.947043" fill="#426544" p-id="23194" data-spm-anchor-id="a313x.7781069.0.i100" class="selected"></path></svg>