<?xml version="1.0" standalone="no"?><!DOCTYPE svg PUBLIC "-//W3C//DTD SVG 1.1//EN" "http://www.w3.org/Graphics/SVG/1.1/DTD/svg11.dtd"><svg t="1678845289458" class="icon" viewBox="0 0 1024 1024" version="1.1" xmlns="http://www.w3.org/2000/svg" p-id="10641" xmlns:xlink="http://www.w3.org/1999/xlink" width="200" height="200"><path d="M512 113.777778c80.592593 0 170.666667 170.666667 170.666667 398.222222s-90.074074 398.222222-170.666667 398.222222-170.666667-170.666667-170.666667-398.222222 90.074074-398.222222 170.666667-398.222222m0-56.888889C385.896296 56.888889 284.444444 260.740741 284.444444 512s101.451852 455.111111 227.555556 455.111111 227.555556-203.851852 227.555556-455.111111S638.103704 56.888889 512 56.888889z" fill="#0097FF" p-id="10642"></path><path d="M512 113.777778c80.592593 0 170.666667 170.666667 170.666667 398.222222s-90.074074 398.222222-170.666667 398.222222-170.666667-170.666667-170.666667-398.222222 90.074074-398.222222 170.666667-398.222222m0-56.888889C385.896296 56.888889 284.444444 260.740741 284.444444 512s101.451852 455.111111 227.555556 455.111111 227.555556-203.851852 227.555556-455.111111S638.103704 56.888889 512 56.888889z" fill="#79548e" p-id="10643" data-spm-anchor-id="a313x.7781069.0.i10" class=""></path><path d="M288.237037 268.325926c90.074074 0 202.903704 35.081481 309.096296 96.711111 97.659259 56.888889 178.251852 128 226.607408 201.007407 38.874074 59.733333 52.148148 113.777778 33.185185 146.014815-16.118519 28.444444-60.681481 44.562963-121.362963 44.562963-90.074074 0-202.903704-35.081481-309.096296-96.711111-97.659259-56.888889-178.251852-128-226.607408-201.007407-38.874074-59.733333-52.148148-113.777778-33.185185-146.014815 17.066667-28.444444 60.681481-44.562963 121.362963-44.562963m0-56.888889c-79.644444 0-142.222222 23.703704-170.666667 73.007407C54.992593 393.481481 180.148148 583.111111 398.222222 709.214815c119.466667 69.214815 240.82963 104.296296 337.540741 104.296296 79.644444 0 142.222222-23.703704 170.666667-73.007407C969.007407 630.518519 843.851852 440.888889 625.777778 314.785185c-119.466667-68.266667-240.82963-104.296296-337.540741-103.348148z" fill="#79548e" p-id="10644" data-spm-anchor-id="a313x.7781069.0.i12" class=""></path><path d="M735.762963 268.325926c60.681481 0 104.296296 16.118519 121.362963 44.562963 18.962963 32.237037 5.688889 86.281481-33.185185 146.014815-48.355556 73.007407-128.948148 144.118519-226.607408 201.007407C491.140741 720.592593 378.311111 755.674074 288.237037 755.674074c-60.681481 0-104.296296-16.118519-121.362963-44.562963-18.962963-32.237037-5.688889-86.281481 33.185185-146.014815 48.355556-73.007407 128.948148-144.118519 226.607408-201.007407C532.859259 303.407407 645.688889 268.325926 735.762963 268.325926m0-56.888889c-96.711111 0-218.074074 35.081481-337.540741 104.296296C180.148148 440.888889 54.992593 630.518519 117.57037 739.555556c28.444444 49.303704 91.022222 73.007407 170.666667 73.007407 96.711111 0 218.074074-35.081481 337.540741-104.296296C843.851852 583.111111 969.007407 393.481481 906.42963 284.444444c-28.444444-49.303704-91.022222-73.007407-170.666667-73.007407z" fill="#0097FF" p-id="10645"></path><path d="M735.762963 268.325926c60.681481 0 104.296296 16.118519 121.362963 44.562963 18.962963 32.237037 5.688889 86.281481-33.185185 146.014815-48.355556 73.007407-128.948148 144.118519-226.607408 201.007407C491.140741 720.592593 378.311111 755.674074 288.237037 755.674074c-60.681481 0-104.296296-16.118519-121.362963-44.562963-18.962963-32.237037-5.688889-86.281481 33.185185-146.014815 48.355556-73.007407 128.948148-144.118519 226.607408-201.007407C532.859259 303.407407 645.688889 268.325926 735.762963 268.325926m0-56.888889c-96.711111 0-218.074074 35.081481-337.540741 104.296296C180.148148 440.888889 54.992593 630.518519 117.57037 739.555556c28.444444 49.303704 91.022222 73.007407 170.666667 73.007407 96.711111 0 218.074074-35.081481 337.540741-104.296296C843.851852 583.111111 969.007407 393.481481 906.42963 284.444444c-28.444444-49.303704-91.022222-73.007407-170.666667-73.007407z" fill="#79548e" p-id="10646" data-spm-anchor-id="a313x.7781069.0.i11" class=""></path><path d="M512 483.555556c16.118519 0 28.444444 12.325926 28.444444 28.444444s-12.325926 28.444444-28.444444 28.444444-28.444444-12.325926-28.444444-28.444444 12.325926-28.444444 28.444444-28.444444m0-56.888889c-47.407407 0-85.333333 37.925926-85.333333 85.333333s37.925926 85.333333 85.333333 85.333333 85.333333-37.925926 85.333333-85.333333-37.925926-85.333333-85.333333-85.333333z" fill="#e8989a" p-id="10647" data-spm-anchor-id="a313x.7781069.0.i14" class="selected"></path></svg>