<?xml version="1.0" standalone="no"?><!DOCTYPE svg PUBLIC "-//W3C//DTD SVG 1.1//EN" "http://www.w3.org/Graphics/SVG/1.1/DTD/svg11.dtd"><svg t="1655257185594" class="icon" viewBox="0 0 1024 1024" version="1.1" xmlns="http://www.w3.org/2000/svg" p-id="3401" xmlns:xlink="http://www.w3.org/1999/xlink" width="48" height="48"><defs><style type="text/css">@font-face { font-family: feedback-iconfont; src: url("//at.alicdn.com/t/font_1031158_u69w8yhxdu.woff2?t=1630033759944") format("woff2"), url("//at.alicdn.com/t/font_1031158_u69w8yhxdu.woff?t=1630033759944") format("woff"), url("//at.alicdn.com/t/font_1031158_u69w8yhxdu.ttf?t=1630033759944") format("truetype"); }
</style></defs><path d="M437.61432 1024c-92.971429 0-179.897143-39.782857-258.285714-118.24a361.474286 361.474286 0 0 1-54.857143-70.628571 266.491429 266.491429 0 0 1-43.657143-35.325715C9.340034 728.308571-15.882823 624.274286 9.785749 506.822857c23.577143-107.885714 88.617143-219.36 183.154285-313.897143C252.311463 133.554286 320.002892 84.571429 388.57432 51.428571c69.508571-33.645714 140.411429-51.428571 205.085714-51.428571 82 0 153.28 27.954286 206.125715 80.8a265.508571 265.508571 0 0 1 35.325714 43.668571 360.72 360.72 0 0 1 70.64 54.788572c87.474286 87.474286 126.742857 185.017143 116.72 289.931428-5.325714 55.382857-24.754286 113.028571-57.794286 171.2-33.245714 58.56-81.405714 119.531429-143.085714 181.2-67.52 67.554286-134.114286 118.742857-197.942857 152.24-63.394286 33.28-125.977143 50.171429-186 50.171429z" fill="#25467A" p-id="3402"></path><path d="M787.671463 787.657143c-241.028571 241.017143-428.925714 229.714286-574.48 84.16S83.29432 447.04 265.145749 265.142857s461.131429-197.508571 606.674285-51.954286 156.868571 333.451429-84.148571 574.468572z" fill="#FFF4DB" p-id="3403"></path><path d="M210.24548 857.353314a310.205714 457.577143 45 1 0 647.111801-647.111801 310.205714 457.577143 45 1 0-647.111801 647.111801Z" fill="#802408" p-id="3404"></path><path d="M374.642892 845.097143m2.274285 0l43.12 0q2.274286 0 2.274286 2.274286l0 70.571428q0 2.274286-2.274286 2.274286l-43.12 0q-2.274286 0-2.274285-2.274286l0-70.571428q0-2.274286 2.274285-2.274286Z" fill="#B5E157" p-id="3405"></path><path d="M920.220034 374.628571m0 2.274286l0 43.12q0 2.274286-2.274285 2.274286l-70.571429 0q-2.274286 0-2.274286-2.274286l0-43.12q0-2.274286 2.274286-2.274286l70.571429 0q2.274286 0 2.274285 2.274286Z" fill="#B5E157" p-id="3406"></path><path d="M560.048606 780.24m2.274286 0l43.12 0q2.274286 0 2.274285 2.274286l0 70.571428q0 2.274286-2.274285 2.274286l-43.12 0q-2.274286 0-2.274286-2.274286l0-70.571428q0-2.274286 2.274286-2.274286Z" fill="#B5E157" p-id="3407"></path><path d="M855.362892 560.034286m0 2.274285l0 43.12q0 2.274286-2.274286 2.274286l-70.571429 0q-2.274286 0-2.274285-2.274286l0-43.12q0-2.274286 2.274285-2.274285l70.571429 0q2.274286 0 2.274286 2.274285Z" fill="#B5E157" p-id="3408"></path><path d="M692.322892 678.594286m2.274285 0l43.12 0q2.274286 0 2.274286 2.274285l0 70.571429q0 2.274286-2.274286 2.274286l-43.12 0q-2.274286 0-2.274285-2.274286l0-70.571429q0-2.274286 2.274285-2.274285Z" fill="#B5E157" p-id="3409"></path><path d="M256.002892 256C191.602892 320.354286-52.339966 598.777143 114.73432 765.851429s360.868571 124.434286 568.205714-82.925715 250-401.142857 82.914286-568.205714S320.357177 191.588571 256.002892 256z" fill="#FFF4DB" p-id="3410"></path><path d="M649.145749 649.142857C469.29432 828.891429 239.305749 890.422857 114.73432 765.851429s-67.668571-359.188571 112.137143-538.994286S641.282892-9.851429 765.85432 114.72 828.89432 469.28 649.145749 649.142857z" fill="#FFFDEC" p-id="3411"></path><path d="M331.602892 669.714286c-22.548571 0-43.28-4.068571-61.874286-12.182857-27.062857-11.805714-48.24-31.565714-62.937143-58.708572a17.142857 17.142857 0 0 1 30.148571-16.32c15.165714 28.022857 47.394286 59.737143 114.754286 51.691429 59.028571-7.04 124.788571-42.982857 180.411429-98.605715a17.144 17.144 0 0 1 24.24 24.251429c-60.96 60.948571-134.068571 100.468571-200.594286 108.4a204.377143 204.377143 0 0 1-24.148571 1.474286zM683.511463 315.257143a17.142857 17.142857 0 0 1-16.914286-20.057143c6.251429-36.251429 4.365714-68.137143-5.462857-92.217143-11.325714-27.76-36.045714-47.645714-69.577143-56-41.611429-10.354286-95.485714-3.154286-155.817143 20.811429a488.537143 488.537143 0 0 0-99.645714 54.057143 17.146286 17.146286 0 0 1-19.668571-28.091429 523.314286 523.314286 0 0 1 106.651428-57.828571c67.028571-26.628571 128.148571-34.285714 176.754286-22.217143 44.434286 11.062857 77.474286 38.16 93.051429 76.32 12.251429 30.034286 14.857143 68.411429 7.508571 110.994285a17.142857 17.142857 0 0 1-16.88 14.228572z" fill="#FFE0B2" p-id="3412"></path><path d="M315.260034 772.045714q-12.034286 0-23.828571-1.028571c-40.948571-3.542857-77.531429-16.068571-108.72-37.234286-55.017143-37.337143-87.28-98.354286-90.822857-171.817143a17.163429 17.163429 0 0 1 34.285714-1.657143c3.017143 62.434286 29.954286 113.965714 75.84 145.142858 31.52 21.394286 70.525714 32.24 113.142857 32.24 30.582857 0 63.005714-5.577143 95.885715-16.845715 196.022857-67.165714 348.297143-271.188571 339.428571-454.857143a17.162286 17.162286 0 0 1 34.285714-1.645714c4.651429 96.331429-30.594286 200.217143-99.257143 292.502857-68.331429 91.874286-161.84 161.611429-263.302857 196.377143-36.605714 12.491429-72.48 18.822857-106.937143 18.822857z" fill="#FFE0B2" p-id="3413"></path><path d="M890.09432 501.634286l3.211429-30.274286a1.245714 1.245714 0 0 0-1.428572-1.428571l-49.588571 5.257142a2.08 2.08 0 0 0-1.771429 1.771429l-3.211428 30.274286a1.245714 1.245714 0 0 0 1.428571 1.428571l49.542857-5.257143a2.08 2.08 0 0 0 1.817143-1.771428zM501.648606 890.08l-30.274286 3.211429a1.245714 1.245714 0 0 1-1.428571-1.428572l5.257143-49.577143a2.068571 2.068571 0 0 1 1.76-1.76l30.274285-3.222857a1.257143 1.257143 0 0 1 1.428572 1.44l-5.257143 49.542857a2.057143 2.057143 0 0 1-1.76 1.794286zM803.762892 649.314286l-0.205715-26.857143a1.462857 1.462857 0 0 0-1.428571-1.428572l-43.954286-0.342857a1.405714 1.405714 0 0 0-1.405714 1.417143l0.217143 26.845714a1.44 1.44 0 0 0 1.428571 1.428572l43.942857 0.342857a1.394286 1.394286 0 0 0 1.405715-1.405714zM649.317177 803.748571l-26.845714-0.205714a1.44 1.44 0 0 1-1.428571-1.428571l-0.342858-43.942857a1.394286 1.394286 0 0 1 1.405715-1.405715l26.857143 0.205715a1.451429 1.451429 0 0 1 1.428571 1.428571l0.342857 43.942857a1.394286 1.394286 0 0 1-1.417143 1.405714z" fill="#631C06" p-id="3414"></path><path d="M384.242892 515.542857a69.268571 69.268571 0 0 1-69.188572-69.222857 13.84 13.84 0 1 1 27.668572-0.822857v0.822857a41.52 41.52 0 0 0 83.028571 0 13.851429 13.851429 0 0 1 27.68-0.822857v0.822857a69.28 69.28 0 0 1-69.188571 69.222857zM204.33432 335.645714a41.52 41.52 0 0 0 83.028572 0 41.52 41.52 0 1 0-83.028572 0zM481.145749 335.645714a41.52 41.52 0 0 0 83.028571 0.068572v-0.068572a41.52 41.52 0 1 0-83.028571 0z" fill="#25467A" p-id="3415"></path><path d="M190.505749 404.845714h-55.28a27.668571 27.668571 0 1 0 0 55.337143h55.382857a27.668571 27.668571 0 1 0 0-55.337143h-0.102857z m442.811428 0h-55.36a27.668571 27.668571 0 0 0 0 55.337143h55.36a27.668571 27.668571 0 1 0 0-55.337143z" fill="#B5E157" p-id="3416"></path></svg>