<?xml version="1.0" encoding="UTF-8"?>
<svg width="66px" height="66px" viewBox="0 0 66 66" version="1.1" xmlns="http://www.w3.org/2000/svg" xmlns:xlink="http://www.w3.org/1999/xlink">
    <!-- Generator: Sketch 57 (83077) - https://sketch.com -->
    <title>编组 12</title>
    <desc>Created with Sketch.</desc>
    <defs>
        <filter x="-13.8%" y="-13.8%" width="127.6%" height="127.6%" filterUnits="objectBoundingBox" id="filter-1">
            <feOffset dx="0" dy="0" in="SourceAlpha" result="shadowOffsetOuter1"></feOffset>
            <feGaussianBlur stdDeviation="2" in="shadowOffsetOuter1" result="shadowBlurOuter1"></feGaussianBlur>
            <feColorMatrix values="0 0 0 0 1   0 0 0 0 0.884317835   0 0 0 0 0.964386528  0 0 0 1 0" type="matrix" in="shadowBlurOuter1" result="shadowMatrixOuter1"></feColorMatrix>
            <feMerge>
                <feMergeNode in="shadowMatrixOuter1"></feMergeNode>
                <feMergeNode in="SourceGraphic"></feMergeNode>
            </feMerge>
        </filter>
        <path d="M0.5278,23.7940606 C0.5278,36.7561818 10.93068,47.2641414 23.7626,47.2641414 L23.7626,47.2641414 C36.59452,47.2641414 46.99798,36.7561818 46.99798,23.7940606 L46.99798,23.7940606 C46.99798,10.8325253 36.59452,0.323979798 23.7626,0.323979798 L23.7626,0.323979798 C10.93068,0.323979798 0.5278,10.8325253 0.5278,23.7940606" id="path-2"></path>
        <linearGradient x1="49.9992203%" y1="97.9855827%" x2="49.9992203%" y2="0.00147287886%" id="linearGradient-4">
            <stop stop-color="#FFA6A6" offset="0%"></stop>
            <stop stop-color="#FF5F5F" offset="100%"></stop>
        </linearGradient>
        <path d="M23.7626,47.2641414 C36.59452,47.2641414 46.99798,36.7561818 46.99798,23.7940606 C46.99798,10.8325253 36.59452,0.323979798 23.7626,0.323979798 C10.93068,0.323979798 0.5278,10.8325253 0.5278,23.7940606 C0.5278,36.7561818 10.93068,47.2641414 23.7626,47.2641414 Z" id="path-5"></path>
        <filter x="-3.2%" y="-3.2%" width="106.5%" height="106.4%" filterUnits="objectBoundingBox" id="filter-6">
            <feGaussianBlur stdDeviation="1.5" in="SourceAlpha" result="shadowBlurInner1"></feGaussianBlur>
            <feOffset dx="0" dy="0" in="shadowBlurInner1" result="shadowOffsetInner1"></feOffset>
            <feComposite in="shadowOffsetInner1" in2="SourceAlpha" operator="arithmetic" k2="-1" k3="1" result="shadowInnerInner1"></feComposite>
            <feColorMatrix values="0 0 0 0 1   0 0 0 0 1   0 0 0 0 1  0 0 0 0.5 0" type="matrix" in="shadowInnerInner1"></feColorMatrix>
        </filter>
    </defs>
    <g id="页面-1" stroke="none" stroke-width="1" fill="none" fill-rule="evenodd">
        <g id="数据中心icon" transform="translate(-1226.000000, -230.000000)">
            <g id="编组-12" transform="translate(1230.000000, 234.000000)">
                <g id="编组备份-10">
                    <g id="编组" filter="url(#filter-1)" fill="#FFFFFF">
                        <path d="M57.421682,29.0669636 C57.421682,44.9320141 44.688942,57.7933677 28.982542,57.7933677 C13.276142,57.7933677 0.543982,44.9320141 0.543982,29.0669636 C0.543982,13.2019131 13.276142,0.340559596 28.982542,0.340559596 C44.688942,0.340559596 57.421682,13.2019131 57.421682,29.0669636" id="Fill-2"></path>
                    </g>
                    <g id="编组" transform="translate(5.220000, 5.272727)">
                        <mask id="mask-3" fill="white">
                            <use xlink:href="#path-2"></use>
                        </mask>
                        <g id="Clip-5"></g>
                        <g id="Fill-4" mask="url(#mask-3)">
                            <use fill="url(#linearGradient-4)" fill-rule="evenodd" xlink:href="#path-5"></use>
                            <use fill="black" fill-opacity="1" filter="url(#filter-6)" xlink:href="#path-5"></use>
                        </g>
                    </g>
                </g>
                <g id="编组" transform="translate(16.000000, 15.000000)" fill-rule="nonzero">
                    <path d="M4.83226103,16.3373162 C4.58065257,16.0857077 4.17049632,16.0857077 3.91888787,16.3373162 L3.60179228,16.6509651 C3.52596507,16.7267923 3.47081801,16.8198529 3.43979779,16.9232537 L1.32008272,23.995864 C1.17532169,24.4852941 1.62339154,24.9402574 2.11282169,24.8023897 L9.31295956,22.7860754 C9.41980699,22.7550551 9.51631434,22.6999081 9.59558824,22.6206342 L9.89889706,22.3173254 C10.1505055,22.0657169 10.1505055,21.6555607 9.89889706,21.4039522 L4.83226103,16.3373162 L4.83226103,16.3373162 Z M16.3959099,5.03561581 C16.071921,4.71162684 15.5445772,4.71162684 15.2205882,5.03561581 L5.95932904,14.296875 C5.63534007,14.620864 5.63534007,15.1482077 5.95932904,15.4721967 L10.7640165,20.2768842 C11.0880055,20.6008732 11.6153493,20.6008732 11.9393382,20.2768842 L21.1971507,11.015625 C21.5211397,10.691636 21.5211397,10.1642923 21.1971507,9.84030331 L16.3959099,5.03561581 Z M24.4852941,4.15670956 L22.0795037,1.75091912 C20.7042739,0.375689338 19.8839614,0.375689338 18.5052849,1.75091912 L17.2265625,3.02964154 C16.9921875,3.26401654 16.9921875,3.64315257 17.2265625,3.87752757 L22.3586857,9.00965074 C22.5930607,9.24402574 22.9721967,9.24402574 23.2065717,9.00965074 L24.4852941,7.73092831 C25.8605239,6.35225184 25.8605239,5.53193934 24.4852941,4.15670956 Z" id="形状" fill="#FFFFFF"></path>
                    <path d="M13.3283548,5.21829044 L14.0866268,4.46001838 C14.152114,4.39453125 14.152114,4.28768382 14.0866268,4.22219669 L10.9122243,1.04779412 C9.53699449,-0.327435662 7.30698529,-0.327435662 5.92830882,1.04779412 L0.0689338235,6.90716912 C0.00344669118,6.97265625 0.00344669118,7.07950368 0.0689338235,7.14499081 L0.947840074,8.02389706 L5.61810662,12.6941636 C5.68359375,12.7596507 5.79044118,12.7596507 5.85592831,12.6941636 L6.61764706,11.9358915 C6.68313419,11.8704044 6.68313419,11.763557 6.61764706,11.6980699 L6.54871324,11.629136 C6.4832261,11.5636489 6.4832261,11.4568015 6.54871324,11.3913143 L9.30261949,8.63740809 C9.36810662,8.57192096 9.36810662,8.46507353 9.30261949,8.3995864 L8.54090074,7.63786765 C8.4754136,7.57238051 8.36856618,7.57238051 8.30307904,7.63786765 L5.54917279,10.3986673 C5.48368566,10.4641544 5.37683824,10.4641544 5.3113511,10.3986673 L4.31525735,9.40257353 C4.38074449,9.46806066 4.48759191,9.46806066 4.55307904,9.40257353 L6.31089154,7.64476103 C6.37637868,7.5792739 6.37637868,7.47242647 6.31089154,7.40693934 L5.54917279,6.64866728 C5.48368566,6.58318015 5.37683824,6.58318015 5.3113511,6.64866728 L3.5535386,8.40647978 C3.48805147,8.47196691 3.38120404,8.47196691 3.31571691,8.40647978 L2.05767463,7.1484375 C1.9921875,7.08295037 1.9921875,6.97610294 2.05767463,6.91061581 L6.63143382,2.33685662 C8.0066636,0.961626838 8.83042279,0.961626838 10.2056526,2.33685662 L13.0870864,5.21829044 C13.1594669,5.28377757 13.2628676,5.28377757 13.3283548,5.21829044 L13.3283548,5.21829044 Z M24.933364,15.4859835 L21.7176011,12.2702206 C21.5935202,12.1461397 21.3970588,12.1461397 21.2729779,12.2702206 L20.7215074,12.8216912 C20.5974265,12.9457721 20.5974265,13.1422335 20.7215074,13.2663143 L23.6443015,16.1891085 C25.0195312,17.5643382 25.0195312,18.3880974 23.6443015,19.7633272 L19.1773897,24.2336857 C19.0533088,24.3577665 18.8568474,24.3577665 18.7327665,24.2336857 L17.4609375,22.9618566 L17.4540441,22.9549632 L19.6771599,20.7318474 C19.8012408,20.6077665 19.8012408,20.4113051 19.6771599,20.2872243 L19.1256893,19.7357537 C19.0016085,19.6116728 18.8051471,19.6116728 18.6810662,19.7357537 L16.6819853,21.7348346 C16.5579044,21.8589154 16.361443,21.8589154 16.2373621,21.7348346 L15.6893382,21.1868107 C15.5652574,21.0627298 15.5652574,20.8662684 15.6893382,20.7421875 L18.1433824,18.2881434 C18.2674632,18.1640625 18.2674632,17.9676011 18.1433824,17.8435202 L17.5919118,17.2920496 C17.4678309,17.1679688 17.2713695,17.1679688 17.1472886,17.2920496 L14.6932445,19.7495404 C14.5691636,19.8736213 14.3727022,19.8736213 14.2486213,19.7495404 C14.1245404,19.6254596 13.928079,19.6254596 13.8039982,19.7495404 L13.2525276,20.301011 C13.1284467,20.4250919 13.1284467,20.6215533 13.2525276,20.7456342 L17.9641544,25.457261 L18.7396599,26.2327665 C18.8637408,26.3568474 19.0602022,26.3568474 19.1842831,26.2327665 L19.9597886,25.457261 L24.943704,20.4733456 C26.3120404,19.0912224 26.3120404,16.8612132 24.933364,15.4859835 Z" id="形状" fill="#FFDFF8"></path>
                </g>
            </g>
        </g>
    </g>
</svg>