<?xml version="1.0" encoding="UTF-8"?>
<svg width="66px" height="66px" viewBox="0 0 66 66" version="1.1" xmlns="http://www.w3.org/2000/svg" xmlns:xlink="http://www.w3.org/1999/xlink">
    <!-- Generator: Sketch 57 (83077) - https://sketch.com -->
    <title>编组 5</title>
    <desc>Created with Sketch.</desc>
    <defs>
        <filter x="-13.8%" y="-13.8%" width="127.6%" height="127.6%" filterUnits="objectBoundingBox" id="filter-1">
            <feOffset dx="0" dy="0" in="SourceAlpha" result="shadowOffsetOuter1"></feOffset>
            <feGaussianBlur stdDeviation="2" in="shadowOffsetOuter1" result="shadowBlurOuter1"></feGaussianBlur>
            <feColorMatrix values="0 0 0 0 0.674333079   0 0 0 0 1   0 0 0 0 0.763222499  0 0 0 0.695776879 0" type="matrix" in="shadowBlurOuter1" result="shadowMatrixOuter1"></feColorMatrix>
            <feMerge>
                <feMergeNode in="shadowMatrixOuter1"></feMergeNode>
                <feMergeNode in="SourceGraphic"></feMergeNode>
            </feMerge>
        </filter>
        <path d="M0.5278,23.7940606 C0.5278,36.7561818 10.93068,47.2641414 23.7626,47.2641414 L23.7626,47.2641414 C36.59452,47.2641414 46.99798,36.7561818 46.99798,23.7940606 L46.99798,23.7940606 C46.99798,10.8325253 36.59452,0.323979798 23.7626,0.323979798 L23.7626,0.323979798 C10.93068,0.323979798 0.5278,10.8325253 0.5278,23.7940606" id="path-2"></path>
        <linearGradient x1="49.9992203%" y1="97.9855827%" x2="49.9992203%" y2="0.00147287886%" id="linearGradient-4">
            <stop stop-color="#00C7B0" offset="0%"></stop>
            <stop stop-color="#00C7B0" offset="100%"></stop>
        </linearGradient>
        <path d="M23.7626,47.2641414 C36.59452,47.2641414 46.99798,36.7561818 46.99798,23.7940606 C46.99798,10.8325253 36.59452,0.323979798 23.7626,0.323979798 C10.93068,0.323979798 0.5278,10.8325253 0.5278,23.7940606 C0.5278,36.7561818 10.93068,47.2641414 23.7626,47.2641414 Z" id="path-5"></path>
        <filter x="-3.2%" y="-3.2%" width="106.5%" height="106.4%" filterUnits="objectBoundingBox" id="filter-6">
            <feGaussianBlur stdDeviation="1.5" in="SourceAlpha" result="shadowBlurInner1"></feGaussianBlur>
            <feOffset dx="0" dy="0" in="shadowBlurInner1" result="shadowOffsetInner1"></feOffset>
            <feComposite in="shadowOffsetInner1" in2="SourceAlpha" operator="arithmetic" k2="-1" k3="1" result="shadowInnerInner1"></feComposite>
            <feColorMatrix values="0 0 0 0 1   0 0 0 0 1   0 0 0 0 1  0 0 0 0.5 0" type="matrix" in="shadowInnerInner1"></feColorMatrix>
        </filter>
    </defs>
    <g id="页面-1" stroke="none" stroke-width="1" fill="none" fill-rule="evenodd">
        <g id="数据中心icon" transform="translate(-518.000000, -111.000000)">
            <g id="编组-5" transform="translate(522.000000, 115.000000)">
                <g id="编组备份-2">
                    <g id="编组" filter="url(#filter-1)" fill="#FFFFFF">
                        <path d="M57.421682,29.0669636 C57.421682,44.9320141 44.688942,57.7933677 28.982542,57.7933677 C13.276142,57.7933677 0.543982,44.9320141 0.543982,29.0669636 C0.543982,13.2019131 13.276142,0.340559596 28.982542,0.340559596 C44.688942,0.340559596 57.421682,13.2019131 57.421682,29.0669636" id="Fill-2"></path>
                    </g>
                    <g id="编组" transform="translate(5.220000, 5.272727)">
                        <mask id="mask-3" fill="white">
                            <use xlink:href="#path-2"></use>
                        </mask>
                        <g id="Clip-5"></g>
                        <g id="Fill-4" mask="url(#mask-3)">
                            <use fill="url(#linearGradient-4)" fill-rule="evenodd" xlink:href="#path-5"></use>
                            <use fill="black" fill-opacity="1" filter="url(#filter-6)" xlink:href="#path-5"></use>
                        </g>
                    </g>
                </g>
                <path d="M38.9767442,15 L19.0008613,15 C17.3436693,15 16,16.3436693 16,18.0008613 L16,40.6864772 C16,42.3212748 17.3436693,43.664944 19.0008613,43.664944 L38.9991387,43.664944 C40.6563307,43.664944 42,42.3212748 42,40.6640827 L42,18.0008613 C41.9776055,16.3436693 40.6339363,15 38.9767442,15 Z M19.583118,20.8001723 L33.91559,20.8001723 C34.6546081,20.8001723 35.2592593,21.4048234 35.2592593,22.1438415 C35.2592593,22.8828596 34.6546081,23.4875108 33.91559,23.4875108 L19.583118,23.4875108 C18.8440999,23.4875108 18.2394488,22.8828596 18.2394488,22.1438415 C18.2394488,21.4048234 18.8440999,20.8001723 19.583118,20.8001723 Z M19.583118,28.0335917 L26.9061154,28.0335917 C27.6451335,28.0335917 28.2497847,28.6382429 28.2497847,29.377261 C28.2497847,30.1162791 27.6451335,30.7209302 26.9061154,30.7209302 L19.583118,30.7209302 C18.8440999,30.7209302 18.2394488,30.1162791 18.2394488,29.377261 C18.2394488,28.6382429 18.8440999,28.0335917 19.583118,28.0335917 L19.583118,28.0335917 Z M19.583118,37.8871662 C18.8440999,37.8871662 18.2394488,37.2825151 18.2394488,36.543497 C18.2394488,35.8044789 18.8440999,35.1998277 19.583118,35.1998277 C20.3221361,35.1998277 20.9267873,35.7820844 20.9267873,36.543497 C20.9267873,37.2825151 20.3221361,37.8871662 19.583118,37.8871662 Z M35.0129199,33.3858742 C32.2807924,37.1481481 29.9069767,41.4926787 29.9069767,41.4926787 L23.6141258,34.8191214 L25.1817399,33.2291128 L29.0559862,36.6554694 C29.0559862,36.6554694 31.0043066,33.6322136 33.5796727,31.0568475 C36.1102498,28.5262705 39.2230835,26.4883721 39.2230835,26.4883721 L39.7605512,27.9440138 C39.7381568,27.9440138 37.1180017,30.4969854 35.0129199,33.3858742 L35.0129199,33.3858742 Z" id="形状" fill="#FFFFFF" fill-rule="nonzero"></path>
            </g>
        </g>
    </g>
</svg>