<?xml version="1.0" encoding="UTF-8"?>
<svg width="66px" height="66px" viewBox="0 0 66 66" version="1.1" xmlns="http://www.w3.org/2000/svg" xmlns:xlink="http://www.w3.org/1999/xlink">
    <!-- Generator: Sketch 57 (83077) - https://sketch.com -->
    <title>编组 6</title>
    <desc>Created with Sketch.</desc>
    <defs>
        <filter x="-13.8%" y="-13.8%" width="127.6%" height="127.6%" filterUnits="objectBoundingBox" id="filter-1">
            <feOffset dx="0" dy="0" in="SourceAlpha" result="shadowOffsetOuter1"></feOffset>
            <feGaussianBlur stdDeviation="2" in="shadowOffsetOuter1" result="shadowBlurOuter1"></feGaussianBlur>
            <feColorMatrix values="0 0 0 0 1   0 0 0 0 0.838147866   0 0 0 0 0.843471949  0 0 0 1 0" type="matrix" in="shadowBlurOuter1" result="shadowMatrixOuter1"></feColorMatrix>
            <feMerge>
                <feMergeNode in="shadowMatrixOuter1"></feMergeNode>
                <feMergeNode in="SourceGraphic"></feMergeNode>
            </feMerge>
        </filter>
        <path d="M0.5278,23.7940606 C0.5278,36.7561818 10.93068,47.2641414 23.7626,47.2641414 L23.7626,47.2641414 C36.59452,47.2641414 46.99798,36.7561818 46.99798,23.7940606 L46.99798,23.7940606 C46.99798,10.8325253 36.59452,0.323979798 23.7626,0.323979798 L23.7626,0.323979798 C10.93068,0.323979798 0.5278,10.8325253 0.5278,23.7940606" id="path-2"></path>
        <linearGradient x1="49.9992203%" y1="97.9855827%" x2="49.9992203%" y2="0.00147287886%" id="linearGradient-4">
            <stop stop-color="#FF7377" offset="0%"></stop>
            <stop stop-color="#FF6165" offset="100%"></stop>
        </linearGradient>
        <path d="M23.7626,47.2641414 C36.59452,47.2641414 46.99798,36.7561818 46.99798,23.7940606 C46.99798,10.8325253 36.59452,0.323979798 23.7626,0.323979798 C10.93068,0.323979798 0.5278,10.8325253 0.5278,23.7940606 C0.5278,36.7561818 10.93068,47.2641414 23.7626,47.2641414 Z" id="path-5"></path>
        <filter x="-3.2%" y="-3.2%" width="106.5%" height="106.4%" filterUnits="objectBoundingBox" id="filter-6">
            <feGaussianBlur stdDeviation="1.5" in="SourceAlpha" result="shadowBlurInner1"></feGaussianBlur>
            <feOffset dx="0" dy="0" in="shadowBlurInner1" result="shadowOffsetInner1"></feOffset>
            <feComposite in="shadowOffsetInner1" in2="SourceAlpha" operator="arithmetic" k2="-1" k3="1" result="shadowInnerInner1"></feComposite>
            <feColorMatrix values="0 0 0 0 1   0 0 0 0 1   0 0 0 0 1  0 0 0 1 0" type="matrix" in="shadowInnerInner1"></feColorMatrix>
        </filter>
    </defs>
    <g id="页面-1" stroke="none" stroke-width="1" fill="none" fill-rule="evenodd">
        <g id="数据中心icon" transform="translate(-754.000000, -111.000000)">
            <g id="编组-6" transform="translate(758.000000, 115.000000)">
                <g id="编组备份-3">
                    <g id="编组" filter="url(#filter-1)" fill="#FFFFFF">
                        <path d="M57.421682,29.0669636 C57.421682,44.9320141 44.688942,57.7933677 28.982542,57.7933677 C13.276142,57.7933677 0.543982,44.9320141 0.543982,29.0669636 C0.543982,13.2019131 13.276142,0.340559596 28.982542,0.340559596 C44.688942,0.340559596 57.421682,13.2019131 57.421682,29.0669636" id="Fill-2"></path>
                    </g>
                    <g id="编组" transform="translate(5.220000, 5.272727)">
                        <mask id="mask-3" fill="white">
                            <use xlink:href="#path-2"></use>
                        </mask>
                        <g id="Clip-5"></g>
                        <g id="Fill-4" mask="url(#mask-3)">
                            <use fill="url(#linearGradient-4)" fill-rule="evenodd" xlink:href="#path-5"></use>
                            <use fill="black" fill-opacity="1" filter="url(#filter-6)" xlink:href="#path-5"></use>
                        </g>
                    </g>
                </g>
                <g id="编组-3" transform="translate(16.017121, 16.017121)" fill="#FFFFFF" fill-rule="nonzero">
                    <path d="M12.9579235,25.9144186 C11.2094395,25.9144186 9.51238153,25.5715786 7.91389004,24.8958981 C6.37111004,24.2430736 4.98546504,23.3088346 3.79552453,22.1188941 C2.60558401,20.9289535 1.67134503,19.5433085 1.01852051,18.0005285 C0.342840011,16.4020371 -1.77635684e-15,14.704979 -1.77635684e-15,12.956495 C-1.77635684e-15,11.208011 0.342840011,9.51095301 1.01852051,7.91246152 C1.67134501,6.36968153 2.60558401,4.98403652 3.79552453,3.79409601 C4.98403652,2.60558401 6.36968153,1.67134501 7.91389004,1.01852051 C9.51095304,0.342840011 11.208011,1.77635684e-15 12.9579235,1.77635684e-15 C15.6949295,1.77635684e-15 18.3119416,0.842815011 20.5246881,2.43844953 C20.6996606,2.56432405 20.8174032,2.75460504 20.8519693,2.96736068 C20.8865354,3.18011632 20.8350881,3.39788537 20.7089646,3.57267852 C20.4464203,3.93641435 19.9389277,4.01886592 19.5747355,3.75695502 C17.6391181,2.36273901 15.350661,1.62563301 12.956495,1.62563301 C6.70680751,1.62563301 1.622776,6.70966451 1.622776,12.959352 C1.622776,19.2090396 6.70680751,24.2930711 12.956495,24.2930711 C19.2061826,24.2930711 24.2902141,19.2090396 24.2902141,12.959352 C24.2902141,12.165106 24.207361,11.3722885 24.0445121,10.602327 C23.9998499,10.3914774 24.0408506,10.1715218 24.1584803,9.9909241 C24.2761099,9.81032639 24.4607161,9.6839061 24.6716236,9.63951802 C24.8824732,9.59485586 25.1024288,9.63585655 25.2830265,9.75348622 C25.4636242,9.87111589 25.5900445,10.0557221 25.6344326,10.2666295 C25.8207647,11.1520849 25.9144188,12.0545035 25.9144188,12.959352 C25.9144188,14.707836 25.5715786,16.4048941 24.8958981,18.0033855 C24.2430736,19.5461655 23.3088346,20.9318105 22.1188941,22.1217511 C20.9289535,23.3116916 19.5433085,24.2459306 18.0005285,24.8987551 C16.4034655,25.5730071 14.7064075,25.9144186 12.9579235,25.9144186 L12.9579235,25.9144186 Z" id="路径"></path>
                    <path d="M8.46529104,18.439079 C8.21244654,18.439079 7.95817355,18.34194 7.76532603,18.1490926 C7.57945079,17.963574 7.47499712,17.7117427 7.47499712,17.4491276 C7.47499712,17.1865124 7.57945079,16.9346811 7.76532603,16.7491626 L16.747734,7.76675452 C16.9332526,7.58087927 17.1850839,7.4764256 17.4476991,7.4764256 C17.7103142,7.4764256 17.9621455,7.58087927 18.1476641,7.76675452 C18.3335393,7.95227304 18.437993,8.20410436 18.437993,8.46671953 C18.437993,8.72933471 18.3335393,8.98116602 18.1476641,9.16668454 L9.16525603,18.1490926 C8.97984218,18.3350825 8.72791322,18.4394531 8.46529104,18.439079 L8.46529104,18.439079 Z" id="路径"></path>
                    <path d="M17.4491275,18.4390797 C17.196283,18.4390797 16.94201,18.34194 16.7491626,18.1490926 L7.76532603,9.16525603 C7.57945079,8.97973751 7.47499712,8.7279062 7.47499712,8.46529103 C7.47499712,8.20267586 7.57945079,7.95084455 7.76532603,7.76532603 C7.95084455,7.57945079 8.20267586,7.47499712 8.46529103,7.47499712 C8.7279062,7.47499712 8.97973751,7.57945079 9.16525603,7.76532603 L18.1476641,16.747734 C18.3335393,16.9332526 18.437993,17.1850839 18.437993,17.4476991 C18.437993,17.7103142 18.3335393,17.9621455 18.1476641,18.1476641 C17.9633244,18.3345544 17.7116325,18.4395547 17.4491275,18.4390797 Z" id="路径"></path>
                </g>
            </g>
        </g>
    </g>
</svg>