<?xml version="1.0" encoding="UTF-8"?>
<svg width="66px" height="66px" viewBox="0 0 66 66" version="1.1" xmlns="http://www.w3.org/2000/svg" xmlns:xlink="http://www.w3.org/1999/xlink">
    <!-- Generator: Sketch 57 (83077) - https://sketch.com -->
    <title>编组 9</title>
    <desc>Created with Sketch.</desc>
    <defs>
        <filter x="-13.8%" y="-13.8%" width="127.6%" height="127.6%" filterUnits="objectBoundingBox" id="filter-1">
            <feOffset dx="0" dy="0" in="SourceAlpha" result="shadowOffsetOuter1"></feOffset>
            <feGaussianBlur stdDeviation="2" in="shadowOffsetOuter1" result="shadowBlurOuter1"></feGaussianBlur>
            <feColorMatrix values="0 0 0 0 1   0 0 0 0 0.942252001   0 0 0 0 0.816673018  0 0 0 1 0" type="matrix" in="shadowBlurOuter1" result="shadowMatrixOuter1"></feColorMatrix>
            <feMerge>
                <feMergeNode in="shadowMatrixOuter1"></feMergeNode>
                <feMergeNode in="SourceGraphic"></feMergeNode>
            </feMerge>
        </filter>
        <path d="M0.5278,23.7940606 C0.5278,36.7561818 10.93068,47.2641414 23.7626,47.2641414 L23.7626,47.2641414 C36.59452,47.2641414 46.99798,36.7561818 46.99798,23.7940606 L46.99798,23.7940606 C46.99798,10.8325253 36.59452,0.323979798 23.7626,0.323979798 L23.7626,0.323979798 C10.93068,0.323979798 0.5278,10.8325253 0.5278,23.7940606" id="path-2"></path>
        <linearGradient x1="49.9992203%" y1="97.9855827%" x2="49.9992203%" y2="0.00147287886%" id="linearGradient-4">
            <stop stop-color="#FFBD6E" offset="0%"></stop>
            <stop stop-color="#FFC11E" offset="100%"></stop>
        </linearGradient>
        <path d="M23.7626,47.2641414 C36.59452,47.2641414 46.99798,36.7561818 46.99798,23.7940606 C46.99798,10.8325253 36.59452,0.323979798 23.7626,0.323979798 C10.93068,0.323979798 0.5278,10.8325253 0.5278,23.7940606 C0.5278,36.7561818 10.93068,47.2641414 23.7626,47.2641414 Z" id="path-5"></path>
        <filter x="-3.2%" y="-3.2%" width="106.5%" height="106.4%" filterUnits="objectBoundingBox" id="filter-6">
            <feGaussianBlur stdDeviation="1.5" in="SourceAlpha" result="shadowBlurInner1"></feGaussianBlur>
            <feOffset dx="0" dy="0" in="shadowBlurInner1" result="shadowOffsetInner1"></feOffset>
            <feComposite in="shadowOffsetInner1" in2="SourceAlpha" operator="arithmetic" k2="-1" k3="1" result="shadowInnerInner1"></feComposite>
            <feColorMatrix values="0 0 0 0 1   0 0 0 0 1   0 0 0 0 1  0 0 0 0.5 0" type="matrix" in="shadowInnerInner1"></feColorMatrix>
        </filter>
    </defs>
    <g id="页面-1" stroke="none" stroke-width="1" fill="none" fill-rule="evenodd">
        <g id="数据中心icon" transform="translate(-990.000000, -111.000000)">
            <g id="编组-9" transform="translate(994.000000, 115.000000)">
                <g id="编组备份-4">
                    <g id="编组" filter="url(#filter-1)" fill="#FFFFFF">
                        <path d="M57.421682,29.0669636 C57.421682,44.9320141 44.688942,57.7933677 28.982542,57.7933677 C13.276142,57.7933677 0.543982,44.9320141 0.543982,29.0669636 C0.543982,13.2019131 13.276142,0.340559596 28.982542,0.340559596 C44.688942,0.340559596 57.421682,13.2019131 57.421682,29.0669636" id="Fill-2"></path>
                    </g>
                    <g id="编组" transform="translate(5.220000, 5.272727)">
                        <mask id="mask-3" fill="white">
                            <use xlink:href="#path-2"></use>
                        </mask>
                        <g id="Clip-5"></g>
                        <g id="Fill-4" mask="url(#mask-3)">
                            <use fill="url(#linearGradient-4)" fill-rule="evenodd" xlink:href="#path-5"></use>
                            <use fill="black" fill-opacity="1" filter="url(#filter-6)" xlink:href="#path-5"></use>
                        </g>
                    </g>
                </g>
                <g id="编组" transform="translate(16.000000, 18.000000)" fill="#FFFFFF" fill-rule="nonzero">
                    <path d="M25.3672637,18.9775243 L14.8764373,1.44653818 C14.366316,0.645944626 13.9364836,0 12.9916038,0 C12.0477905,0 11.5135724,0.762310115 11.1067703,1.44653818 L0.615182177,18.9775243 C0.173669514,19.6572069 -0.136262828,20.4663612 0.0602951152,21.1706148 C0.232832414,21.7878721 0.897158144,22.2083333 1.91795939,22.2083333 L24.0646134,22.2083333 C25.346874,22.2083333 25.7765287,21.60595 25.8991204,21.2869803 C26.1805885,20.5572464 25.8311465,19.7239503 25.3672637,18.9775243 Z M11.7118316,7.24155467 C11.7118316,6.53391715 12.2886571,5.96034741 12.9999323,5.96034741 C13.7117153,5.96034741 14.2883124,6.53404341 14.2883124,7.24155467 L14.2883124,13.220665 C14.2883124,13.9280248 13.7115884,14.501847 12.9999323,14.501847 C12.2885302,14.501847 11.7118316,13.928151 11.7118316,13.220665 L11.7118316,7.24152942 L11.7118316,7.24155467 Z M12.9999323,18.7803495 C12.2335569,18.7803495 11.6127781,18.1627134 11.6127781,17.400378 C11.6127781,16.6383204 12.2335569,16.0208106 12.9999323,16.0208106 C13.7663077,16.0208106 14.3873404,16.6383204 14.3873404,17.400378 C14.3873404,18.1625619 13.7663077,18.7803495 12.9999323,18.7803495 L12.9999323,18.7803495 Z" id="形状"></path>
                </g>
            </g>
        </g>
    </g>
</svg>