<?xml version="1.0" encoding="UTF-8"?>
<svg width="66px" height="66px" viewBox="0 0 66 66" version="1.1" xmlns="http://www.w3.org/2000/svg" xmlns:xlink="http://www.w3.org/1999/xlink">
    <!-- Generator: Sketch 57 (83077) - https://sketch.com -->
    <title>编组 2</title>
    <desc>Created with Sketch.</desc>
    <defs>
        <filter x="-13.8%" y="-13.8%" width="127.6%" height="127.6%" filterUnits="objectBoundingBox" id="filter-1">
            <feOffset dx="0" dy="0" in="SourceAlpha" result="shadowOffsetOuter1"></feOffset>
            <feGaussianBlur stdDeviation="2" in="shadowOffsetOuter1" result="shadowBlurOuter1"></feGaussianBlur>
            <feColorMatrix values="0 0 0 0 0.689348323   0 0 0 0 0.801649634   0 0 0 0 1  0 0 0 1 0" type="matrix" in="shadowBlurOuter1" result="shadowMatrixOuter1"></feColorMatrix>
            <feMerge>
                <feMergeNode in="shadowMatrixOuter1"></feMergeNode>
                <feMergeNode in="SourceGraphic"></feMergeNode>
            </feMerge>
        </filter>
        <path d="M0.5278,23.7940606 C0.5278,36.7561818 10.93068,47.2641414 23.7626,47.2641414 L23.7626,47.2641414 C36.59452,47.2641414 46.99798,36.7561818 46.99798,23.7940606 L46.99798,23.7940606 C46.99798,10.8325253 36.59452,0.323979798 23.7626,0.323979798 L23.7626,0.323979798 C10.93068,0.323979798 0.5278,10.8325253 0.5278,23.7940606" id="path-2"></path>
        <linearGradient x1="49.9992203%" y1="99.9993706%" x2="49.9992203%" y2="0.00147287886%" id="linearGradient-4">
            <stop stop-color="#8ABAFF" offset="0%"></stop>
            <stop stop-color="#245EFD" offset="100%"></stop>
        </linearGradient>
        <path d="M0.5278,23.7940606 C0.5278,36.7561818 10.93068,47.2641414 23.7626,47.2641414 L23.7626,47.2641414 C36.59452,47.2641414 46.99798,36.7561818 46.99798,23.7940606 L46.99798,23.7940606 C46.99798,10.8325253 36.59452,0.323979798 23.7626,0.323979798 L23.7626,0.323979798 C10.93068,0.323979798 0.5278,10.8325253 0.5278,23.7940606" id="path-5"></path>
        <filter x="-3.2%" y="-3.2%" width="106.5%" height="106.4%" filterUnits="objectBoundingBox" id="filter-6">
            <feGaussianBlur stdDeviation="1.5" in="SourceAlpha" result="shadowBlurInner1"></feGaussianBlur>
            <feOffset dx="0" dy="0" in="shadowBlurInner1" result="shadowOffsetInner1"></feOffset>
            <feComposite in="shadowOffsetInner1" in2="SourceAlpha" operator="arithmetic" k2="-1" k3="1" result="shadowInnerInner1"></feComposite>
            <feColorMatrix values="0 0 0 0 1   0 0 0 0 1   0 0 0 0 1  0 0 0 0.5 0" type="matrix" in="shadowInnerInner1"></feColorMatrix>
        </filter>
    </defs>
    <g id="页面-1" stroke="none" stroke-width="1" fill="none" fill-rule="evenodd">
        <g id="数据中心icon" transform="translate(-284.000000, -231.000000)">
            <g id="编组-2" transform="translate(288.000000, 235.000000)">
                <g id="编组备份">
                    <g id="编组" filter="url(#filter-1)" fill="#FFFFFF">
                        <path d="M57.421682,29.0669636 C57.421682,44.9320141 44.688942,57.7933677 28.982542,57.7933677 C13.276142,57.7933677 0.543982,44.9320141 0.543982,29.0669636 C0.543982,13.2019131 13.276142,0.340559596 28.982542,0.340559596 C44.688942,0.340559596 57.421682,13.2019131 57.421682,29.0669636" id="Fill-2"></path>
                    </g>
                    <g id="编组" transform="translate(5.220000, 5.272727)">
                        <mask id="mask-3" fill="white">
                            <use xlink:href="#path-2"></use>
                        </mask>
                        <g id="Clip-5"></g>
                        <g id="Fill-4" mask="url(#mask-3)">
                            <use fill="url(#linearGradient-4)" fill-rule="evenodd" xlink:href="#path-5"></use>
                            <use fill="black" fill-opacity="1" filter="url(#filter-6)" xlink:href="#path-5"></use>
                        </g>
                    </g>
                </g>
                <path d="M30.3999983,27.5158432 L42.9999985,27.5158432 C42.9999985,27.5158432 43.0396636,14.9531859 30.3999983,14 L30.3999983,27.5158432 Z M40.8999971,29.6508202 C40.8999971,37.1151504 35.102838,43.1666635 27.9499986,43.1666635 C20.798327,43.1666635 15,37.1151504 15,29.6508202 C15,22.1853222 20.798327,16.1338092 27.9499986,16.1338092 L27.9499986,29.6508202 L40.8999971,29.6508202 L40.8999971,29.6508202 Z" id="形状" fill="#FFFFFF" fill-rule="nonzero"></path>
            </g>
        </g>
    </g>
</svg>