<?xml version="1.0" encoding="UTF-8"?>
<svg width="66px" height="66px" viewBox="0 0 66 66" version="1.1" xmlns="http://www.w3.org/2000/svg" xmlns:xlink="http://www.w3.org/1999/xlink">
    <!-- Generator: Sketch 57 (83077) - https://sketch.com -->
    <title>编组 4</title>
    <desc>Created with Sketch.</desc>
    <defs>
        <filter x="-13.8%" y="-13.8%" width="127.6%" height="127.6%" filterUnits="objectBoundingBox" id="filter-1">
            <feOffset dx="0" dy="0" in="SourceAlpha" result="shadowOffsetOuter1"></feOffset>
            <feGaussianBlur stdDeviation="2" in="shadowOffsetOuter1" result="shadowBlurOuter1"></feGaussianBlur>
            <feColorMatrix values="0 0 0 0 0.674333079   0 0 0 0 1   0 0 0 0 0.763222499  0 0 0 0.695776879 0" type="matrix" in="shadowBlurOuter1" result="shadowMatrixOuter1"></feColorMatrix>
            <feMerge>
                <feMergeNode in="shadowMatrixOuter1"></feMergeNode>
                <feMergeNode in="SourceGraphic"></feMergeNode>
            </feMerge>
        </filter>
        <path d="M0.5278,23.7940606 C0.5278,36.7561818 10.93068,47.2641414 23.7626,47.2641414 L23.7626,47.2641414 C36.59452,47.2641414 46.99798,36.7561818 46.99798,23.7940606 L46.99798,23.7940606 C46.99798,10.8325253 36.59452,0.323979798 23.7626,0.323979798 L23.7626,0.323979798 C10.93068,0.323979798 0.5278,10.8325253 0.5278,23.7940606" id="path-2"></path>
        <linearGradient x1="49.9992203%" y1="97.9855827%" x2="49.9992203%" y2="0.00147287886%" id="linearGradient-4">
            <stop stop-color="#00C7B0" offset="0%"></stop>
            <stop stop-color="#00C7B0" offset="100%"></stop>
        </linearGradient>
        <path d="M23.7626,47.2641414 C36.59452,47.2641414 46.99798,36.7561818 46.99798,23.7940606 C46.99798,10.8325253 36.59452,0.323979798 23.7626,0.323979798 C10.93068,0.323979798 0.5278,10.8325253 0.5278,23.7940606 C0.5278,36.7561818 10.93068,47.2641414 23.7626,47.2641414 Z" id="path-5"></path>
        <filter x="-3.2%" y="-3.2%" width="106.5%" height="106.4%" filterUnits="objectBoundingBox" id="filter-6">
            <feGaussianBlur stdDeviation="1.5" in="SourceAlpha" result="shadowBlurInner1"></feGaussianBlur>
            <feOffset dx="0" dy="0" in="shadowBlurInner1" result="shadowOffsetInner1"></feOffset>
            <feComposite in="shadowOffsetInner1" in2="SourceAlpha" operator="arithmetic" k2="-1" k3="1" result="shadowInnerInner1"></feComposite>
            <feColorMatrix values="0 0 0 0 1   0 0 0 0 1   0 0 0 0 1  0 0 0 0.5 0" type="matrix" in="shadowInnerInner1"></feColorMatrix>
        </filter>
    </defs>
    <g id="页面-1" stroke="none" stroke-width="1" fill="none" fill-rule="evenodd">
        <g id="数据中心icon" transform="translate(-518.000000, -230.000000)">
            <g id="编组-4" transform="translate(522.000000, 234.000000)">
                <g id="编组备份-6">
                    <g id="编组" filter="url(#filter-1)" fill="#FFFFFF">
                        <path d="M57.421682,29.0669636 C57.421682,44.9320141 44.688942,57.7933677 28.982542,57.7933677 C13.276142,57.7933677 0.543982,44.9320141 0.543982,29.0669636 C0.543982,13.2019131 13.276142,0.340559596 28.982542,0.340559596 C44.688942,0.340559596 57.421682,13.2019131 57.421682,29.0669636" id="Fill-2"></path>
                    </g>
                    <g id="编组" transform="translate(5.220000, 5.272727)">
                        <mask id="mask-3" fill="white">
                            <use xlink:href="#path-2"></use>
                        </mask>
                        <g id="Clip-5"></g>
                        <g id="Fill-4" mask="url(#mask-3)">
                            <use fill="url(#linearGradient-4)" fill-rule="evenodd" xlink:href="#path-5"></use>
                            <use fill="black" fill-opacity="1" filter="url(#filter-6)" xlink:href="#path-5"></use>
                        </g>
                    </g>
                </g>
                <path d="M41.1940293,40.3750284 L40.3750284,40.3750284 L40.3750284,30.629892 C40.3750284,29.711766 39.6405275,29.0000151 38.7354015,29.0000151 L35.5162727,29.0000151 C34.5948966,29.0000151 33.8750208,29.729641 33.8750208,30.629892 L33.8750208,40.3750284 L32.2500189,40.3750284 L32.2500189,17.6363769 C32.2500189,16.7296258 31.5155181,16 30.610392,16 L27.3896383,16 C26.4698872,16 25.7500113,16.7328759 25.7500113,17.6363769 L25.7500113,40.3750284 L24.1250095,40.3750284 L24.1250095,24.1185094 C24.1250095,23.2231334 23.3905086,22.5 22.4853825,22.5 L19.2646288,22.5 C18.3448777,22.5 17.6250019,23.2247584 17.6250019,24.1185094 L17.6250019,40.3750284 L16.8060009,40.3750284 C16.3672504,40.3750284 16,40.7390288 16,41.1875293 C16,41.6230298 16.3607504,42.0000303 16.8060009,42.0000303 L41.1924043,42.0000303 C41.6327798,42.0000303 42.0000303,41.6360298 42.0000303,41.1875293 C42.0000303,40.7520288 41.6392798,40.3750284 41.1940293,40.3750284 Z" id="路径" fill="#FFFFFF" fill-rule="nonzero"></path>
            </g>
        </g>
    </g>
</svg>