<?xml version="1.0" encoding="UTF-8"?>
<svg width="66px" height="66px" viewBox="0 0 66 66" version="1.1" xmlns="http://www.w3.org/2000/svg" xmlns:xlink="http://www.w3.org/1999/xlink">
    <!-- Generator: Sketch 57 (83077) - https://sketch.com -->
    <title>编组 7</title>
    <desc>Created with Sketch.</desc>
    <defs>
        <filter x="-13.8%" y="-13.8%" width="127.6%" height="127.6%" filterUnits="objectBoundingBox" id="filter-1">
            <feOffset dx="0" dy="0" in="SourceAlpha" result="shadowOffsetOuter1"></feOffset>
            <feGaussianBlur stdDeviation="2" in="shadowOffsetOuter1" result="shadowBlurOuter1"></feGaussianBlur>
            <feColorMatrix values="0 0 0 0 0.798162631   0 0 0 0 1   0 0 0 0 0.603448933  0 0 0 1 0" type="matrix" in="shadowBlurOuter1" result="shadowMatrixOuter1"></feColorMatrix>
            <feMerge>
                <feMergeNode in="shadowMatrixOuter1"></feMergeNode>
                <feMergeNode in="SourceGraphic"></feMergeNode>
            </feMerge>
        </filter>
        <path d="M0.5278,23.7940606 C0.5278,36.7561818 10.93068,47.2641414 23.7626,47.2641414 L23.7626,47.2641414 C36.59452,47.2641414 46.99798,36.7561818 46.99798,23.7940606 L46.99798,23.7940606 C46.99798,10.8325253 36.59452,0.323979798 23.7626,0.323979798 L23.7626,0.323979798 C10.93068,0.323979798 0.5278,10.8325253 0.5278,23.7940606" id="path-2"></path>
        <linearGradient x1="50%" y1="0%" x2="50%" y2="100%" id="linearGradient-4">
            <stop stop-color="#7FDD1B" offset="0%"></stop>
            <stop stop-color="#85D241" offset="100%"></stop>
        </linearGradient>
        <path d="M23.7626,47.2641414 C36.59452,47.2641414 46.99798,36.7561818 46.99798,23.7940606 C46.99798,10.8325253 36.59452,0.323979798 23.7626,0.323979798 C10.93068,0.323979798 0.5278,10.8325253 0.5278,23.7940606 C0.5278,36.7561818 10.93068,47.2641414 23.7626,47.2641414 Z" id="path-5"></path>
        <filter x="-3.2%" y="-3.2%" width="106.5%" height="106.4%" filterUnits="objectBoundingBox" id="filter-6">
            <feGaussianBlur stdDeviation="1.5" in="SourceAlpha" result="shadowBlurInner1"></feGaussianBlur>
            <feOffset dx="0" dy="0" in="shadowBlurInner1" result="shadowOffsetInner1"></feOffset>
            <feComposite in="shadowOffsetInner1" in2="SourceAlpha" operator="arithmetic" k2="-1" k3="1" result="shadowInnerInner1"></feComposite>
            <feColorMatrix values="0 0 0 0 1   0 0 0 0 1   0 0 0 0 1  0 0 0 1 0" type="matrix" in="shadowInnerInner1"></feColorMatrix>
        </filter>
    </defs>
    <g id="页面-1" stroke="none" stroke-width="1" fill="none" fill-rule="evenodd">
        <g id="数据中心icon" transform="translate(-754.000000, -230.000000)">
            <g id="编组-7" transform="translate(758.000000, 234.000000)">
                <g id="编组备份-7">
                    <g id="编组" filter="url(#filter-1)" fill="#FFFFFF">
                        <path d="M57.421682,29.0669636 C57.421682,44.9320141 44.688942,57.7933677 28.982542,57.7933677 C13.276142,57.7933677 0.543982,44.9320141 0.543982,29.0669636 C0.543982,13.2019131 13.276142,0.340559596 28.982542,0.340559596 C44.688942,0.340559596 57.421682,13.2019131 57.421682,29.0669636" id="Fill-2"></path>
                    </g>
                    <g id="编组" transform="translate(5.220000, 5.272727)">
                        <mask id="mask-3" fill="white">
                            <use xlink:href="#path-2"></use>
                        </mask>
                        <g id="Clip-5"></g>
                        <g id="Fill-4" mask="url(#mask-3)">
                            <use fill="url(#linearGradient-4)" fill-rule="evenodd" xlink:href="#path-5"></use>
                            <use fill="black" fill-opacity="1" filter="url(#filter-6)" xlink:href="#path-5"></use>
                        </g>
                    </g>
                </g>
                <path d="M39.5625,39.9185185 C40.0112314,39.9185185 40.375,40.2849817 40.375,40.737037 C40.375,41.1890923 40.0112314,41.5555556 39.5625,41.5555556 L18.4375,41.5555556 C17.9887686,41.5555556 17.625,41.1890923 17.625,40.737037 C17.625,40.2849817 17.9887686,39.9185185 18.4375,39.9185185 L39.5625,39.9185185 L39.5625,39.9185185 Z M40.375,17 C41.2724627,17 42,17.7329264 42,18.637037 L42,36.6444444 C42,37.548555 41.2724627,38.2814815 40.375,38.2814815 L17.625,38.2814815 C16.7275373,38.2814815 16,37.548555 16,36.6444444 L16,18.637037 C16,17.7329264 16.7275373,17 17.625,17 L40.375,17 Z M30.295125,22.3694815 C29.9078768,22.2277713 29.4766409,22.4004881 29.2916875,22.7713741 L29.2535,22.8589556 L26.40975,30.7306481 L24.009625,27.849463 C23.9801791,27.814056 23.9478365,27.7812 23.9129375,27.7512407 C23.7669493,27.5570397 23.5426822,27.4384379 23.3011042,27.4276778 C23.0595262,27.4169178 22.825744,27.5151177 22.6633125,27.6955815 L22.599125,27.7757963 L19.8033125,31.7988148 C19.5579726,32.1527886 19.6277167,32.6378659 19.9626703,32.9071648 C20.297624,33.1764637 20.7826103,33.1373834 21.0708125,32.8178704 L21.1341875,32.7376556 L23.32875,29.5781741 L25.920625,32.689363 L25.945,32.7122815 C26.0758413,32.9974754 26.3571777,33.182055 26.6690051,33.1872877 C26.9808325,33.1925204 27.2681151,33.0174827 27.4083125,32.736837 L27.4465,32.6492556 L30.3073125,24.7284519 L34.737875,30.0504593 C34.8666197,30.2565822 35.0797879,30.3942474 35.3194601,30.4260501 C35.5591323,30.4578529 35.8004151,30.3804899 35.97775,30.2149815 L36.0484375,30.1413148 L38.137375,27.6325556 C38.4131138,27.3016382 38.3860599,26.8118053 38.0755821,26.5137467 C37.7651044,26.2156881 37.2781345,26.2120581 36.9633125,26.5054556 L36.892625,26.5799407 L35.43175,28.3332074 L30.7671875,22.7329037 C30.7268382,22.6846355 30.6813347,22.6409909 30.6315,22.6027593 C30.5409422,22.4975812 30.4251307,22.4175471 30.295125,22.3703 L30.295125,22.3694815 Z" id="形状" fill="#FFFFFF" fill-rule="nonzero"></path>
            </g>
        </g>
    </g>
</svg>