<?xml version="1.0" encoding="UTF-8"?>
<svg width="66px" height="66px" viewBox="0 0 66 66" version="1.1" xmlns="http://www.w3.org/2000/svg" xmlns:xlink="http://www.w3.org/1999/xlink">
    <!-- Generator: Sketch 57 (83077) - https://sketch.com -->
    <title>编组 8</title>
    <desc>Created with Sketch.</desc>
    <defs>
        <filter x="-13.8%" y="-13.8%" width="127.6%" height="127.6%" filterUnits="objectBoundingBox" id="filter-1">
            <feOffset dx="0" dy="0" in="SourceAlpha" result="shadowOffsetOuter1"></feOffset>
            <feGaussianBlur stdDeviation="2" in="shadowOffsetOuter1" result="shadowBlurOuter1"></feGaussianBlur>
            <feColorMatrix values="0 0 0 0 0.72585747   0 0 0 0 0.899571548   0 0 0 0 1  0 0 0 1 0" type="matrix" in="shadowBlurOuter1" result="shadowMatrixOuter1"></feColorMatrix>
            <feMerge>
                <feMergeNode in="shadowMatrixOuter1"></feMergeNode>
                <feMergeNode in="SourceGraphic"></feMergeNode>
            </feMerge>
        </filter>
        <path d="M0.5278,23.7940606 C0.5278,36.7561818 10.93068,47.2641414 23.7626,47.2641414 L23.7626,47.2641414 C36.59452,47.2641414 46.99798,36.7561818 46.99798,23.7940606 L46.99798,23.7940606 C46.99798,10.8325253 36.59452,0.323979798 23.7626,0.323979798 L23.7626,0.323979798 C10.93068,0.323979798 0.5278,10.8325253 0.5278,23.7940606" id="path-2"></path>
        <linearGradient x1="49.9992203%" y1="97.9855827%" x2="49.9992203%" y2="0.00147287886%" id="linearGradient-4">
            <stop stop-color="#4BD1FF" offset="0%"></stop>
            <stop stop-color="#1E98FF" offset="100%"></stop>
        </linearGradient>
        <path d="M23.7626,47.2641414 C36.59452,47.2641414 46.99798,36.7561818 46.99798,23.7940606 C46.99798,10.8325253 36.59452,0.323979798 23.7626,0.323979798 C10.93068,0.323979798 0.5278,10.8325253 0.5278,23.7940606 C0.5278,36.7561818 10.93068,47.2641414 23.7626,47.2641414 Z" id="path-5"></path>
        <filter x="-3.2%" y="-3.2%" width="106.5%" height="106.4%" filterUnits="objectBoundingBox" id="filter-6">
            <feGaussianBlur stdDeviation="1.5" in="SourceAlpha" result="shadowBlurInner1"></feGaussianBlur>
            <feOffset dx="0" dy="0" in="shadowBlurInner1" result="shadowOffsetInner1"></feOffset>
            <feComposite in="shadowOffsetInner1" in2="SourceAlpha" operator="arithmetic" k2="-1" k3="1" result="shadowInnerInner1"></feComposite>
            <feColorMatrix values="0 0 0 0 1   0 0 0 0 1   0 0 0 0 1  0 0 0 0.5 0" type="matrix" in="shadowInnerInner1"></feColorMatrix>
        </filter>
    </defs>
    <g id="页面-1" stroke="none" stroke-width="1" fill="none" fill-rule="evenodd">
        <g id="数据中心icon" transform="translate(-990.000000, -230.000000)">
            <g id="编组-8" transform="translate(994.000000, 234.000000)">
                <g id="编组备份-8">
                    <g id="编组" filter="url(#filter-1)" fill="#FFFFFF">
                        <path d="M57.421682,29.0669636 C57.421682,44.9320141 44.688942,57.7933677 28.982542,57.7933677 C13.276142,57.7933677 0.543982,44.9320141 0.543982,29.0669636 C0.543982,13.2019131 13.276142,0.340559596 28.982542,0.340559596 C44.688942,0.340559596 57.421682,13.2019131 57.421682,29.0669636" id="Fill-2"></path>
                    </g>
                    <g id="编组" transform="translate(5.220000, 5.272727)">
                        <mask id="mask-3" fill="white">
                            <use xlink:href="#path-2"></use>
                        </mask>
                        <g id="Clip-5"></g>
                        <g id="Fill-4" mask="url(#mask-3)">
                            <use fill="url(#linearGradient-4)" fill-rule="evenodd" xlink:href="#path-5"></use>
                            <use fill="black" fill-opacity="1" filter="url(#filter-6)" xlink:href="#path-5"></use>
                        </g>
                    </g>
                </g>
                <g id="编组-28" transform="translate(16.000000, 16.000000)" fill="#FFFFFF" fill-rule="nonzero">
                    <path d="M14.0255278,0 C15.7475881,0.0394315168 17.1183654,1.45529622 17.1021112,3.17777779 L17.1021112,5.30111111 C17.1263445,7.02919232 15.7532814,8.45386448 14.0255278,8.49333334 L13.7222027,8.49333334 L13.722,11.555 L17.6230744,11.5555556 C20.6684512,11.6018637 23.1115031,13.9549466 23.1111111,16.8414873 L23.111,17.867 L23.2842016,17.8793762 C24.8316989,18.0273797 26.023505,19.341871 25.999648,20.9155556 L25.999648,22.9522222 C26.0243886,24.5841913 24.7417494,25.9374123 23.1108374,26 L21.0886699,26 C19.4577578,25.9374123 18.1751187,24.5841913 18.1998592,22.9522222 L18.1998592,20.9155556 C18.1751187,19.2835864 19.4577579,17.9303655 21.0886699,17.8677778 L21.619,17.867 L21.6197968,16.8414873 C21.6203296,14.7354038 19.8448014,13.0150248 17.6230744,12.9689063 L13.722,12.968 L13.7222027,17.8677778 L13.9821956,17.8677778 C15.6131077,17.9303655 16.8957468,19.2835864 16.8710063,20.9155556 L16.8710063,22.9522222 C16.8957468,24.5841913 15.6131077,25.9374123 13.9821956,26 L12.0178044,26 C10.3868923,25.9374123 9.10425319,24.5841913 9.1289937,22.9522222 L9.1289937,20.9155556 C9.1042532,19.2835864 10.3868923,17.9303655 12.0178044,17.8677778 L12.2777973,17.8677778 L12.277,12.968 L8.3769256,12.9689063 C6.15519859,13.0150248 4.37967035,14.7354038 4.38020322,16.8414873 L4.38,17.867 L4.91133012,17.8677778 C6.54224216,17.9303655 7.82488128,19.2835864 7.80014078,20.9155556 L7.80014078,22.9522222 C7.82488129,24.5841913 6.54224217,25.9374123 4.91133012,26 L2.88916264,26 C1.25825058,25.9374123 -0.0243885579,24.5841913 0.000351953962,22.9522222 L0.000351953962,20.9155556 C-0.0243834659,19.2839214 1.25772411,17.930921 2.88815842,17.8678165 L2.88888889,16.8414873 C2.8884969,13.9549466 5.33154875,11.6018637 8.3769256,11.5555556 L12.277,11.555 L12.2777973,8.49333334 L11.9744722,8.49333334 C10.252412,8.45390181 8.88163462,7.03803712 8.89788885,5.31555555 L8.89788885,3.17777779 C8.88163462,1.45529623 10.252412,0.0394315304 11.9744722,0 L14.0255278,0 Z" id="形状结合"></path>
                </g>
            </g>
        </g>
    </g>
</svg>