<svg t="1655102528671" class="icon" viewBox="0 0 1034 1024" version="1.1" xmlns="http://www.w3.org/2000/svg" p-id="3567" width="48" height="48"><path d="M512 1018.514286c-178.857143 0-306.971429-37.6-391.657143-114.857143C39.314286 829.828571 0 721.828571 0 573.828571c0-102.171429 30.4-198.628571 87.771429-278.857142 47.2-66.057143 111.085714-119.085714 186.4-155.2-1.028571-10.057143-1.485714-20.228571-1.371429-30.4 0-47.428571 21.371429-72.228571 39.314286-84.571429 24.685714-17.142857 54.4-19.314286 77.485714-19.314286 17.028571 0 35.314286 1.371429 54.628571 2.857143 21.828571 1.714286 44.342857 3.428571 67.771429 3.428572s45.942857-1.714286 67.771429-3.428572c19.314286-1.485714 37.6-2.857143 54.628571-2.857143 23.085714 0 52.685714 2.171429 77.485714 19.314286 17.942857 12.342857 39.314286 37.142857 39.314286 84.685714 0 10.171429-0.457143 20.342857-1.371429 30.4 75.2 36.114286 139.085714 89.142857 186.4 155.2 57.485714 80.228571 87.771429 176.685714 87.771429 278.857143 0 148.114286-39.314286 256-120.342857 329.942857-84.685714 77.142857-212.8 114.628571-391.657143 114.628572z" fill="#25467A" p-id="3568"></path><path d="M48 573.828571c0-256.228571 207.771429-439.085714 464-439.085714s464 182.857143 464 439.085714-124.571429 396.8-464 396.8-464-140.571429-464-396.8z" fill="#FFF4E3" p-id="3569"></path><path d="M890.628571 848.8c-71.885714 79.771429-193.142857 121.714286-378.628571 121.714286s-306.742857-41.942857-378.628571-121.828572C197.6 877.485714 309.142857 893.714286 512 893.714286s314.4-16.228571 378.628571-44.914286z" fill="#CC6700" p-id="3570"></path><path d="M320.8 109.257143c0-81.942857 85.6-49.6 191.2-49.6s191.2-32.342857 191.2 49.6-26.742857 113.142857-191.2 113.142857-191.2-31.2-191.2-113.142857z" fill="#FFF3E0" p-id="3571"></path><path d="M689.6 412.342857c-18.628571-9.942857-18.628571-37.371429-30.742857-90.742857-14.057143-61.828571-28.8-89.6-23.885714-92.571429 6.171429-3.771429 32 38.057143 44.342857 59.771429 13.828571 24.342857 57.142857 100.571429 39.314285 121.6-6.514286 7.657143-20.114286 6.628571-29.028571 1.942857zM334.4 412.342857c18.628571-9.942857 18.628571-37.371429 30.742857-90.742857 14.057143-61.828571 28.8-89.6 23.885714-92.571429-6.171429-3.771429-32 38.057143-44.342857 59.771429-13.828571 24.342857-57.142857 100.571429-39.314285 121.6 6.514286 7.657143 20.114286 6.628571 29.028571 1.942857zM827.657143 370.971429c-20.571429-0.114286-30.742857-25.028571-61.714286-67.657143-35.771429-49.371429-59.542857-67.542857-56.228571-72.685715 4.228571-6.285714 43.2 19.314286 62.514285 33.142858 21.6 15.542857 89.257143 64 80.914286 91.542857-2.857143 10.285714-15.657143 15.771429-25.485714 15.657143zM196.342857 370.971429c20.571429-0.114286 30.742857-25.028571 61.714286-67.657143 35.771429-49.371429 59.542857-67.542857 56.228571-72.685715-4.228571-6.285714-43.2 19.314286-62.514285 33.142858-21.6 15.542857-89.257143 64-80.914286 91.542857 2.857143 10.285714 15.657143 15.771429 25.485714 15.657143z" fill="#FFE9C9" p-id="3572"></path><path d="M424.914286 104.228571c11.2-11.2 29.257143-11.2 40.457143 0l16.114285 16.114286c11.2 11.2 11.2 29.257143 0 40.457143-11.2 11.2-29.257143 11.2-40.457143 0l-16.114285-16.114286c-11.2-11.2-11.2-29.257143 0-40.457143zM599.085714 104.228571c11.2 11.2 11.2 29.257143 0 40.457143l-16.114285 16.114286c-11.2 11.2-29.257143 11.2-40.457143 0-11.2-11.2-11.2-29.257143 0-40.457143l16.114285-16.114286c11.2-11.085714 29.257143-11.085714 40.457143 0zM481.485714 211.542857c11.2 11.2 11.2 29.257143 0 40.457143l-16.114285 16.114286c-11.2 11.2-29.257143 11.2-40.457143 0-11.2-11.2-11.2-29.257143 0-40.457143l16.114285-16.114286c11.2-11.2 29.257143-11.2 40.457143 0zM542.514286 211.542857c11.2-11.2 29.257143-11.2 40.457143 0l16.114285 16.114286c11.2 11.2 11.2 29.257143 0 40.457143-11.2 11.2-29.257143 11.2-40.457143 0l-16.114285-16.114286c-11.2-11.2-11.2-29.257143 0-40.457143zM666.742857 185.485714c11.2-11.2 29.257143-11.2 40.457143 0l16.114286 16.114286c11.2 11.2 11.2 29.257143 0 40.457143-11.2 11.2-29.257143 11.2-40.457143 0l-16.114286-16.114286c-11.085714-11.2-11.085714-29.371429 0-40.457143zM357.257143 185.485714c11.2 11.2 11.2 29.257143 0 40.457143l-16.114286 16.114286c-11.2 11.2-29.257143 11.2-40.457143 0-11.2-11.2-11.2-29.257143 0-40.457143l16.114286-16.114286c11.2-11.2 29.257143-11.2 40.457143 0z" fill="#689F38" p-id="3573"></path><path d="M512 631.885714c-35.314286 0-64-28.685714-64-64 0-7.085714 5.714286-12.8 12.8-12.8s12.8 5.714286 12.8 12.8c0 21.257143 17.142857 38.4 38.4 38.4s38.4-17.142857 38.4-38.4c0-7.085714 5.714286-12.8 12.8-12.8s12.8 5.714286 12.8 12.8c0 35.314286-28.685714 63.885714-64 64zM345.6 465.485714c0 21.257143 17.257143 38.4 38.4 38.4s38.4-17.257143 38.4-38.4-17.257143-38.4-38.4-38.4c-21.257143-0.114286-38.4 17.142857-38.4 38.4 0-0.114286 0 0 0 0zM601.6 465.485714c0 21.257143 17.142857 38.4 38.4 38.4s38.4-17.142857 38.4-38.4-17.142857-38.4-38.4-38.4-38.4 17.142857-38.4 38.4z" fill="#25467A" p-id="3574"></path><path d="M332.8 529.485714h-51.2c-14.171429 0-25.6 11.428571-25.6 25.6 0 14.171429 11.428571 25.6 25.6 25.6h51.2c14.171429 0 25.6-11.428571 25.6-25.6s-11.428571-25.6-25.6-25.6z m409.6 0h-51.2c-14.171429 0-25.6 11.428571-25.6 25.6s11.428571 25.6 25.6 25.6h51.2c14.171429 0 25.6-11.428571 25.6-25.6 0-14.171429-11.428571-25.6-25.6-25.6z" fill="#689F38" p-id="3575"></path></svg>