<?xml version="1.0" standalone="no"?><!DOCTYPE svg PUBLIC "-//W3C//DTD SVG 1.1//EN" "http://www.w3.org/Graphics/SVG/1.1/DTD/svg11.dtd"><svg t="1655257204231" class="icon" viewBox="0 0 1024 1024" version="1.1" xmlns="http://www.w3.org/2000/svg" p-id="3579" xmlns:xlink="http://www.w3.org/1999/xlink" width="48" height="48"><defs><style type="text/css">@font-face { font-family: feedback-iconfont; src: url("//at.alicdn.com/t/font_1031158_u69w8yhxdu.woff2?t=1630033759944") format("woff2"), url("//at.alicdn.com/t/font_1031158_u69w8yhxdu.woff?t=1630033759944") format("woff"), url("//at.alicdn.com/t/font_1031158_u69w8yhxdu.ttf?t=1630033759944") format("truetype"); }
</style></defs><path d="M512 1006.514286c-130.285714 0-253.6-22.285714-347.2-62.742857C58.514286 897.828571 0 831.657143 0 757.714286V342.057143c0-27.885714 8.342857-54.742857 24.685714-80.114286v-6.514286c0-71.085714 56-134.4 157.6-178.4C271.2 38.628571 388.228571 17.485714 512 17.485714c123.771429 0 240.8 21.142857 329.6 59.542857 101.6 44 157.6 107.314286 157.6 178.4v6.4c16.457143 25.371429 24.685714 52.228571 24.685714 80.114286V757.714286c0 73.942857-58.514286 140-164.8 186.057143-93.485714 40.457143-216.8 62.742857-347.085714 62.742857z" fill="#25467A" p-id="3580"></path><path d="M48 757.714286c0 110.857143 207.771429 200.8 464 200.8S976 868.685714 976 757.714286V553.942857H48V757.714286z" fill="#FFE0B2" p-id="3581"></path><path d="M48 553.942857c0 110.857143 207.771429 200.8 464 200.8s464-89.942857 464-200.8-207.771429-200.685714-464-200.685714S48 443.2 48 553.942857z" fill="#FFB74D" p-id="3582"></path><path d="M48 545.828571c0 110.857143 207.771429 200.8 464 200.8s464-89.942857 464-200.8V342.057143H48v203.771428z" fill="#FFE0B2" p-id="3583"></path><path d="M48 342.057143c0 110.857143 207.771429 200.8 464 200.8s464-89.942857 464-200.8-207.771429-200.685714-464-200.685714S48 231.314286 48 342.057143z" fill="#FFF3E0" p-id="3584"></path><path d="M72.685714 328.114286c0 105.028571 196.685714 190.057143 439.314286 190.057143S951.314286 433.142857 951.314286 328.114286v-72.685715H72.685714v72.685715z" fill="#FFD699" p-id="3585"></path><path d="M72.685714 255.428571c0 105.028571 196.685714 190.057143 439.314286 190.057143s439.314286-85.142857 439.314286-190.057143S754.628571 65.485714 512 65.485714 72.685714 150.514286 72.685714 255.428571z" fill="#FFF3E0" p-id="3586"></path><path d="M512 432.228571c-118.628571 0-229.714286-21.714286-313.142857-61.028571-70.857143-33.485714-114.971429-77.942857-114.971429-115.885714S127.885714 172.914286 198.857143 139.428571c83.2-39.314286 194.4-61.028571 313.142857-61.028571 118.628571 0 229.714286 21.714286 313.142857 61.028571 70.857143 33.485714 114.971429 77.942857 114.971429 115.885715S896.114286 337.714286 825.142857 371.2c-83.314286 39.542857-194.514286 61.028571-313.142857 61.028571z" fill="#FFCC80" p-id="3587"></path><path d="M886.628571 335.085714c-17.028571 12.914286-37.6 25.257143-61.257142 36.457143-83.428571 39.314286-194.514286 61.028571-313.257143 61.028572-118.857143 0-229.942857-21.714286-313.257143-61.028572-23.657143-11.085714-44.342857-23.428571-61.257143-36.457143 49.828571-41.142857 168.228571-111.542857 374.4-111.542857 206.285714-0.114286 324.8 70.285714 374.628571 111.542857z" fill="#FFE0B2" p-id="3588"></path><path d="M176.914286 680.457143c-3.2 0-5.828571-2.171429-5.828572-4.8V490.057143c0-2.628571 2.628571-4.8 5.828572-4.8s5.828571 2.171429 5.828571 4.8v185.714286c0 2.514286-2.628571 4.685714-5.828571 4.685714zM136.342857 870.4c-3.2 0-5.828571-2.171429-5.828571-4.8V680c0-2.628571 2.628571-4.8 5.828571-4.8s5.828571 2.171429 5.828572 4.8v185.714286c0 2.514286-2.628571 4.685714-5.828572 4.685714z" fill="#FFB74D" p-id="3589"></path><path d="M651.2 319.314286c0.914286-48.571429 17.371429-116.685714 122.4-111.542857 98.971429 4.914286 88.8 65.714286 88 116.114285-0.8 52.342857-93.828571 46.628571-102.285714 46.628572-10.742857 0.114286-109.257143 4.114286-108.114286-51.2z" fill="#F5F5F5" p-id="3590"></path><path d="M652 328c-4.342857-34.285714 31.885714-81.028571 103.085714-79.428571 77.714286 1.828571 107.314286 36 104.457143 80.457142-2.971429 46.4-91.885714 41.485714-100.342857 41.485715-10.628571 0.114286-101.485714 2.514286-107.2-42.514286z" fill="#FDFDFD" p-id="3591"></path><path d="M539.885714 169.828571c-55.885714 2.742857-72.457143 153.142857-43.2 161.6 49.028571 14.171429 95.085714 11.542857 113.714286-3.428571 18.628571-15.085714 19.2-30.628571 19.2-53.828571 0-69.257143 9.828571-109.142857-89.714286-104.342858z" fill="#F5F5F5" p-id="3592"></path><path d="M493.485714 173.828571c-39.428571 21.714286-51.542857 96.914286-27.542857 147.885715 9.942857 21.142857 128.8 26.171429 141.942857 7.428571 8-12.342857 8.8-116.685714 12.342857-130.514286 7.771429-29.6-87.428571-46.4-126.742857-24.8z" fill="#FDFDFD" p-id="3593"></path><path d="M614.742857 426.971429c-33.257143 3.657143-67.657143 5.6-102.628571 5.6-40.914286 0-80.8-2.514286-119.085715-7.542858 2.057143-50.742857 14.857143-118.628571 117.942858-113.6 95.657143 4.685714 103.771429 64.571429 103.771428 115.542858z" fill="#F5F5F5" p-id="3594"></path><path d="M611.771429 427.2c-32.342857 3.428571-65.714286 5.257143-99.657143 5.257143-40.114286 0-79.314286-2.514286-116.914286-7.314286 8.571429-32 45.371429-65.142857 107.2-63.771428 70.4 1.714286 103.428571 28.571429 109.371429 65.828571z" fill="#FDFDFD" p-id="3595"></path><path d="M166.057143 308.571429c1.485714-50.742857 42.285714-120.228571 155.885714-91.314286 45.714286 11.542857 65.257143 66.742857 63.085714 102.171428-1.142857 18.057143-43.542857 47.085714-92.114285 48.571429-53.142857 1.6-128.228571-10.971429-126.857143-59.428571z" fill="#F5F5F5" p-id="3596"></path><path d="M166.057143 317.257143c-1.028571-37.028571 13.257143-88.914286 78.285714-83.428572 70.971429 6.057143 86.057143 63.2 81.942857 110.971429-2.171429 25.371429-41.371429 27.2-78.514285 22.742857-52-6.057143-81.028571-23.428571-81.714286-50.285714z" fill="#FDFDFD" p-id="3597"></path><path d="M512 854.285714c-35.314286 0-64-28.685714-64-64 0-7.085714 5.714286-12.8 12.8-12.8s12.8 5.714286 12.8 12.8c0 21.257143 17.142857 38.4 38.4 38.4s38.4-17.142857 38.4-38.4c0-7.085714 5.714286-12.8 12.8-12.8s12.8 5.714286 12.8 12.8c0 35.314286-28.571429 64-64 64zM345.6 687.885714c0 21.257143 17.142857 38.4 38.4 38.4s38.4-17.142857 38.4-38.4-17.142857-38.4-38.4-38.4c-21.142857 0-38.285714 17.142857-38.4 38.4zM601.6 687.885714c0 21.257143 17.142857 38.4 38.4 38.4s38.4-17.142857 38.4-38.4-17.142857-38.4-38.4-38.4-38.285714 17.142857-38.4 38.4z" fill="#25467A" p-id="3598"></path><path d="M332.8 751.885714h-51.2c-14.171429 0-25.6 11.428571-25.6 25.6 0 14.171429 11.428571 25.6 25.6 25.6h51.2c14.171429 0 25.6-11.428571 25.6-25.6 0-14.171429-11.428571-25.6-25.6-25.6z m409.6 0h-51.2c-14.171429 0-25.6 11.428571-25.6 25.6 0 14.171429 11.428571 25.6 25.6 25.6h51.2c14.171429 0 25.6-11.428571 25.6-25.6 0-14.171429-11.428571-25.6-25.6-25.6z" fill="#FFA726" p-id="3599"></path></svg>